<svg xmlns="http://www.w3.org/2000/svg" width="375" viewBox="0 0 375 375" height="375" version="1.0"><defs><clipPath id="a"><path d="M 195 190 L 224 190 L 224 204 L 195 204 Z M 195 190"/></clipPath><clipPath id="b"><path d="M 135.644531 247.527344 L 157.585938 161.789062 L 239.691406 182.804688 L 217.75 268.539062 Z M 135.644531 247.527344"/></clipPath><clipPath id="c"><path d="M 135.644531 247.527344 L 157.585938 161.789062 L 239.691406 182.804688 L 217.75 268.539062 Z M 135.644531 247.527344"/></clipPath><clipPath id="d"><path d="M 144 166 L 230 166 L 230 260 L 144 260 Z M 144 166"/></clipPath><clipPath id="e"><path d="M 135.644531 247.527344 L 157.585938 161.789062 L 239.691406 182.804688 L 217.75 268.539062 Z M 135.644531 247.527344"/></clipPath><clipPath id="f"><path d="M 135.644531 247.527344 L 157.585938 161.789062 L 239.691406 182.804688 L 217.75 268.539062 Z M 135.644531 247.527344"/></clipPath><clipPath id="g"><path d="M 213 179 L 225 179 L 225 200 L 213 200 Z M 213 179"/></clipPath><clipPath id="h"><path d="M 135.644531 247.527344 L 157.585938 161.789062 L 239.691406 182.804688 L 217.75 268.539062 Z M 135.644531 247.527344"/></clipPath><clipPath id="i"><path d="M 135.644531 247.527344 L 157.585938 161.789062 L 239.691406 182.804688 L 217.75 268.539062 Z M 135.644531 247.527344"/></clipPath></defs><path fill="#49AB30" d="M 233.777344 90.09375 C 233.777344 88.921875 234.363281 87.753906 234.363281 86.582031 L 234.363281 84.242188 C 234.363281 80.148438 232.023438 76.054688 229.097656 73.714844 L 244.3125 16.964844 C 245.480469 12.285156 244.894531 7.605469 241.96875 4.09375 C 239.042969 0.585938 234.363281 0 229.097656 1.171875 C 229.097656 1.171875 205.101562 8.773438 197.496094 11.117188 C 192.226562 12.285156 183.449219 12.285156 178.769531 11.117188 C 169.992188 8.773438 146.582031 1.171875 145.996094 1.171875 C 140.730469 0 136.050781 0.585938 133.125 4.09375 C 130.199219 7.019531 129.027344 11.699219 130.78125 16.378906 L 145.996094 73.128906 C 142.488281 75.46875 140.730469 79.5625 140.730469 83.660156 L 140.730469 86 C 140.730469 87.167969 140.730469 88.339844 141.316406 88.921875 C 62.316406 131.046875 37.738281 264.429688 34.808594 280.226562 C 30.714844 306.550781 37.152344 331.707031 52.953125 350.429688 C 66.410156 366.226562 84.550781 375 102.691406 375 L 272.398438 375 C 290.542969 375 308.683594 366.226562 322.140625 350.429688 C 337.941406 331.707031 344.378906 306.550781 340.28125 280.8125 C 330.921875 225.234375 298.148438 124.023438 233.777344 90.09375 Z M 152.433594 86.582031 L 152.433594 84.242188 C 152.433594 83.074219 153.019531 82.488281 154.191406 82.488281 L 220.902344 82.488281 C 222.074219 82.488281 222.660156 83.074219 222.660156 84.242188 L 222.660156 86.582031 C 222.660156 87.753906 222.074219 88.339844 220.902344 88.339844 L 154.191406 88.339844 C 153.019531 88.339844 152.433594 87.753906 152.433594 86.582031 Z M 141.902344 12.285156 L 142.488281 12.285156 C 143.65625 12.871094 167.066406 19.890625 174.671875 22.230469 C 181.695312 23.984375 192.8125 23.984375 199.835938 22.230469 C 208.027344 19.890625 230.851562 12.285156 231.4375 12.285156 L 232.605469 12.285156 L 232.605469 13.457031 L 217.390625 70.789062 L 157.703125 70.789062 L 141.902344 13.457031 Z M 313.363281 342.824219 C 302.246094 355.695312 287.617188 363.300781 272.402344 363.300781 L 102.691406 363.300781 C 87.476562 363.300781 72.847656 355.695312 61.730469 342.824219 C 48.269531 327.027344 42.417969 304.796875 46.515625 282.566406 C 55.878906 228.742188 87.476562 129.289062 148.925781 98.867188 C 150.679688 99.453125 152.433594 100.039062 154.191406 100.039062 L 220.902344 100.039062 C 222.660156 100.039062 224.414062 99.453125 225.585938 98.867188 C 287.617188 129.289062 319.800781 232.253906 328.578125 282.566406 C 332.675781 304.796875 326.824219 327.027344 313.363281 342.824219 Z M 313.363281 342.824219"/><path fill="#49AB30" d="M 275.328125 339.898438 L 99.765625 339.898438 C 96.257812 339.898438 93.914062 342.238281 93.914062 345.75 C 93.914062 349.257812 96.257812 351.597656 99.765625 351.597656 L 275.328125 351.597656 C 278.835938 351.597656 281.179688 349.257812 281.179688 345.75 C 281.179688 342.238281 278.835938 339.898438 275.328125 339.898438 Z M 275.328125 339.898438"/><g clip-path="url(#a)"><g clip-path="url(#b)"><g clip-path="url(#c)"><path fill="#49AB30" d="M 223.417969 200.136719 C 223.40625 200.136719 223.390625 200.132812 223.378906 200.128906 C 223.21875 200.097656 223.054688 200.058594 222.878906 200.019531 C 222.855469 200.011719 222.832031 200.003906 222.804688 200 C 222.625 199.953125 222.4375 199.902344 222.246094 199.84375 C 222.222656 199.839844 222.203125 199.832031 222.179688 199.828125 C 221.980469 199.765625 221.773438 199.699219 221.558594 199.621094 C 221.542969 199.617188 221.53125 199.613281 221.515625 199.609375 C 221.292969 199.527344 221.066406 199.441406 220.832031 199.34375 C 220.828125 199.34375 220.828125 199.34375 220.828125 199.34375 C 220.824219 199.34375 220.824219 199.34375 220.824219 199.339844 C 220.371094 199.15625 219.914062 198.9375 219.457031 198.691406 C 219.191406 198.550781 218.914062 198.386719 218.632812 198.210938 C 217.9375 197.78125 217.136719 197.199219 216.351562 196.445312 C 216.332031 196.445312 216.3125 196.441406 216.292969 196.4375 C 216.152344 196.421875 215.949219 196.394531 215.6875 196.359375 C 215.160156 196.300781 214.40625 196.21875 213.496094 196.171875 C 212.585938 196.113281 211.519531 196.082031 210.375 196.089844 C 209.800781 196.097656 209.210938 196.101562 208.609375 196.132812 C 208.308594 196.148438 208.007812 196.164062 207.703125 196.175781 C 207.402344 196.199219 207.097656 196.222656 206.792969 196.25 C 206.183594 196.285156 205.574219 196.363281 204.976562 196.429688 C 204.378906 196.488281 203.792969 196.59375 203.226562 196.675781 C 202.65625 196.75 202.117188 196.871094 201.597656 196.96875 C 201.339844 197.019531 201.089844 197.0625 200.847656 197.117188 C 200.605469 197.171875 200.375 197.226562 200.148438 197.28125 C 199.703125 197.390625 199.292969 197.480469 198.929688 197.582031 C 198.574219 197.6875 198.261719 197.777344 198.003906 197.851562 C 197.488281 198 197.191406 198.085938 197.191406 198.085938 C 197.191406 198.085938 197.484375 197.984375 197.988281 197.8125 C 198.242188 197.726562 198.554688 197.617188 198.90625 197.496094 C 199.261719 197.378906 199.671875 197.273438 200.113281 197.140625 C 200.332031 197.074219 200.5625 197.007812 200.800781 196.941406 C 201.042969 196.875 201.292969 196.816406 201.550781 196.753906 C 202.066406 196.632812 202.605469 196.484375 203.171875 196.382812 C 203.738281 196.273438 204.320312 196.136719 204.921875 196.050781 C 205.519531 195.953125 206.128906 195.847656 206.742188 195.78125 C 207.046875 195.742188 207.351562 195.703125 207.660156 195.664062 C 207.964844 195.636719 208.269531 195.605469 208.574219 195.578125 C 209.175781 195.511719 209.773438 195.484375 210.351562 195.445312 C 211.511719 195.382812 212.59375 195.363281 213.523438 195.378906 C 214.257812 195.382812 214.898438 195.410156 215.402344 195.441406 C 214.738281 194.652344 214.117188 193.726562 213.628906 192.640625 C 213.550781 192.476562 213.480469 192.3125 213.414062 192.140625 C 213.390625 192.089844 213.371094 192.035156 213.351562 191.980469 C 213.304688 191.863281 213.261719 191.746094 213.21875 191.625 C 213.195312 191.5625 213.175781 191.492188 213.152344 191.425781 C 213.117188 191.316406 213.082031 191.207031 213.050781 191.097656 C 213.027344 191.023438 213.007812 190.949219 212.984375 190.875 C 212.96875 190.820312 212.953125 190.765625 212.9375 190.710938 C 212.058594 190.523438 211.175781 190.417969 210.316406 190.390625 C 204.605469 190.171875 200.359375 193.34375 198.800781 194.714844 C 196.902344 196.359375 195.871094 197.949219 195.425781 198.699219 C 196.210938 199.058594 198 199.84375 200.074219 200.691406 C 203.015625 201.859375 206.453125 203.113281 209.902344 203.25 C 213.34375 203.347656 216.855469 202.328125 219.875 201.363281 C 221.417969 200.847656 222.671875 200.40625 223.417969 200.136719"/></g></g></g><g clip-path="url(#d)"><g clip-path="url(#e)"><g clip-path="url(#f)"><path fill="#49AB30" d="M 226.644531 204.171875 C 226.15625 202.890625 225.589844 201.605469 224.957031 200.347656 C 224.933594 200.347656 224.910156 200.34375 224.886719 200.34375 C 224.867188 200.339844 224.855469 200.339844 224.835938 200.339844 C 224.816406 200.335938 224.789062 200.335938 224.765625 200.332031 C 224.738281 200.332031 224.707031 200.328125 224.675781 200.324219 C 224.621094 200.320312 224.566406 200.3125 224.503906 200.308594 C 224.492188 200.304688 224.480469 200.304688 224.46875 200.304688 C 224.421875 200.296875 224.371094 200.292969 224.320312 200.285156 C 224.953125 201.65625 225.503906 203.042969 225.957031 204.414062 C 226.898438 207.285156 227.515625 210.273438 227.792969 213.289062 C 228.082031 216.367188 227.964844 219.609375 227.445312 222.925781 C 227.40625 223.246094 227.34375 223.566406 227.28125 223.875 L 226.988281 225.339844 L 226.511719 227.234375 L 225.960938 229.027344 C 225.875 229.296875 225.78125 229.554688 225.683594 229.816406 C 225.632812 229.957031 225.582031 230.097656 225.53125 230.238281 C 225.320312 230.855469 225.0625 231.464844 224.8125 232.054688 C 224.730469 232.242188 224.652344 232.4375 224.570312 232.625 C 223.691406 234.542969 222.9375 235.96875 222.117188 237.257812 C 221.808594 237.792969 221.441406 238.324219 221.089844 238.832031 C 220.949219 239.039062 220.808594 239.242188 220.667969 239.449219 C 220.492188 239.691406 220.320312 239.914062 220.152344 240.140625 C 220.054688 240.265625 219.957031 240.390625 219.863281 240.519531 L 219.460938 241.046875 L 219.023438 241.570312 C 216.757812 244.316406 214.070312 246.765625 211.03125 248.84375 C 209.667969 249.78125 208.113281 250.6875 206.277344 251.609375 C 204.757812 252.363281 203.074219 253.042969 201.132812 253.6875 C 199.519531 254.21875 197.75 254.652344 195.722656 255.011719 C 194.058594 255.300781 192.238281 255.46875 190.15625 255.53125 C 188.476562 255.570312 186.648438 255.472656 184.570312 255.230469 L 183.191406 255.027344 C 182.949219 254.996094 182.710938 254.949219 182.492188 254.902344 L 181.191406 254.640625 C 181.050781 254.617188 180.882812 254.574219 180.710938 254.53125 C 180.632812 254.507812 180.550781 254.488281 180.472656 254.46875 L 179.03125 254.105469 L 179.03125 254.101562 C 179.019531 254.101562 179.003906 254.09375 178.992188 254.089844 L 177.753906 253.710938 C 177.335938 253.589844 176.917969 253.4375 176.511719 253.289062 L 176.425781 253.257812 C 176.269531 253.199219 176.117188 253.144531 175.964844 253.089844 C 175.683594 252.988281 175.394531 252.886719 175.109375 252.761719 L 173.851562 252.230469 C 171.953125 251.359375 170.355469 250.503906 168.960938 249.605469 C 167.238281 248.488281 165.792969 247.414062 164.550781 246.328125 C 163.039062 244.992188 161.777344 243.734375 160.703125 242.476562 C 159.417969 240.957031 158.363281 239.542969 157.488281 238.15625 C 156.429688 236.46875 155.601562 234.941406 154.953125 233.488281 C 153.5 230.277344 152.523438 226.945312 152.042969 223.582031 L 151.945312 222.96875 L 151.878906 222.324219 C 151.863281 222.164062 151.847656 222.007812 151.832031 221.851562 C 151.800781 221.59375 151.777344 221.335938 151.753906 221.078125 C 151.742188 220.8125 151.726562 220.5625 151.714844 220.320312 C 151.679688 219.746094 151.648438 219.152344 151.660156 218.5625 C 151.625 216.757812 151.796875 215.003906 151.953125 213.675781 C 151.988281 213.457031 152.015625 213.253906 152.042969 213.050781 C 152.132812 212.46875 152.21875 211.863281 152.34375 211.316406 L 152.574219 210.191406 L 153.144531 207.929688 L 153.171875 207.9375 L 153.640625 206.460938 L 154.039062 205.371094 C 154.140625 205.089844 154.246094 204.800781 154.375 204.515625 C 155.554688 201.660156 157.015625 199.050781 158.710938 196.777344 C 160.359375 194.554688 162.257812 192.519531 164.347656 190.734375 C 167.988281 187.640625 172.324219 185.246094 176.890625 183.8125 C 177.113281 183.746094 177.335938 183.675781 177.558594 183.613281 L 178.097656 183.453125 L 179.066406 191.898438 L 196.328125 177.125 L 176.160156 166.542969 L 177.078125 174.558594 L 176.699219 174.671875 C 175.808594 174.933594 174.910156 175.226562 174.035156 175.546875 C 168.476562 177.554688 163.257812 180.730469 158.945312 184.726562 C 156.488281 187.015625 154.285156 189.589844 152.394531 192.382812 C 150.453125 195.242188 148.828125 198.464844 147.558594 201.957031 C 147.425781 202.300781 147.316406 202.636719 147.203125 202.996094 L 146.984375 203.683594 C 146.890625 203.984375 146.792969 204.289062 146.699219 204.597656 L 146.164062 206.632812 L 146.011719 207.347656 L 145.6875 208.949219 L 145.507812 210.0625 C 145.371094 210.839844 145.300781 211.558594 145.222656 212.320312 C 145.199219 212.53125 145.179688 212.746094 145.15625 212.957031 C 144.984375 215.203125 144.953125 217.050781 145.058594 218.757812 C 145.078125 219.492188 145.152344 220.234375 145.222656 220.949219 C 145.25 221.203125 145.273438 221.460938 145.296875 221.714844 C 145.335938 222.03125 145.386719 222.363281 145.433594 222.695312 L 145.617188 223.914062 L 145.757812 224.632812 C 146.492188 228.546875 147.800781 232.378906 149.644531 236.03125 C 150.480469 237.707031 151.511719 239.425781 152.796875 241.292969 C 153.886719 242.859375 155.164062 244.425781 156.695312 246.082031 C 158.003906 247.484375 159.5 248.859375 161.269531 250.285156 C 162.757812 251.480469 164.445312 252.625 166.429688 253.792969 C 168.070312 254.75 169.910156 255.636719 172.050781 256.507812 L 173.519531 257.054688 C 173.832031 257.175781 174.140625 257.273438 174.46875 257.375 C 174.648438 257.429688 174.824219 257.484375 175.003906 257.542969 L 175.054688 257.558594 C 175.523438 257.707031 176.003906 257.859375 176.476562 257.976562 L 178.074219 258.394531 L 179.5 258.6875 C 179.582031 258.703125 179.671875 258.722656 179.757812 258.742188 C 179.902344 258.769531 180.046875 258.804688 180.214844 258.828125 L 181.019531 258.957031 C 181.195312 258.980469 181.378906 259.011719 181.566406 259.042969 C 181.917969 259.101562 182.253906 259.15625 182.578125 259.183594 L 184.148438 259.351562 C 186.421875 259.519531 188.449219 259.546875 190.324219 259.417969 C 192.585938 259.261719 194.578125 258.988281 196.410156 258.589844 C 198.589844 258.109375 200.503906 257.554688 202.257812 256.898438 C 204.3125 256.117188 206.105469 255.304688 207.734375 254.410156 C 209.65625 253.34375 211.292969 252.296875 212.734375 251.210938 C 215.886719 248.851562 218.648438 246.113281 220.941406 243.078125 L 221.382812 242.503906 L 222.058594 241.535156 C 222.234375 241.28125 222.414062 241.023438 222.585938 240.765625 C 222.710938 240.5625 222.847656 240.34375 222.984375 240.128906 C 223.355469 239.535156 223.710938 238.972656 224.023438 238.378906 C 224.832031 236.972656 225.585938 235.390625 226.394531 233.394531 C 226.464844 233.210938 226.539062 233.011719 226.613281 232.816406 C 226.863281 232.144531 227.101562 231.511719 227.292969 230.859375 C 227.34375 230.703125 227.390625 230.550781 227.4375 230.398438 C 227.527344 230.125 227.613281 229.847656 227.691406 229.574219 L 228.175781 227.710938 L 228.328125 226.988281 L 228.589844 225.726562 L 228.835938 224.15625 C 228.890625 223.808594 228.941406 223.480469 228.96875 223.15625 C 229.359375 219.695312 229.339844 216.339844 228.90625 213.171875 C 228.492188 210.089844 227.730469 207.0625 226.644531 204.171875"/></g></g></g><g clip-path="url(#g)"><g clip-path="url(#h)"><g clip-path="url(#i)"><path fill="#49AB30" d="M 222.414062 196.363281 C 222.609375 196.648438 222.777344 196.898438 222.917969 197.101562 C 223.058594 197.304688 223.167969 197.464844 223.242188 197.574219 C 223.320312 197.683594 223.363281 197.742188 223.363281 197.742188 C 223.363281 197.742188 223.308594 197.699219 223.207031 197.609375 C 223.105469 197.523438 222.953125 197.394531 222.773438 197.222656 C 222.589844 197.054688 222.375 196.839844 222.132812 196.589844 C 221.898438 196.332031 221.621094 196.050781 221.347656 195.722656 C 221.210938 195.558594 221.066406 195.386719 220.917969 195.210938 C 220.769531 195.03125 220.628906 194.839844 220.480469 194.644531 C 220.175781 194.257812 219.875 193.832031 219.578125 193.386719 C 219.421875 193.167969 219.285156 192.929688 219.136719 192.695312 C 218.988281 192.460938 218.835938 192.226562 218.699219 191.980469 C 218.4375 191.480469 218.140625 190.988281 217.898438 190.464844 C 217.660156 189.945312 217.410156 189.425781 217.214844 188.894531 C 217.109375 188.632812 217.011719 188.371094 216.917969 188.109375 C 216.824219 187.847656 216.753906 187.582031 216.671875 187.324219 C 216.597656 187.066406 216.515625 186.816406 216.445312 186.566406 C 216.382812 186.3125 216.335938 186.0625 216.285156 185.820312 C 216.183594 185.339844 216.082031 184.882812 216.046875 184.453125 C 215.996094 184.023438 215.960938 183.632812 215.929688 183.289062 C 215.921875 182.9375 215.929688 182.632812 215.933594 182.382812 C 215.941406 181.886719 215.953125 181.605469 215.953125 181.605469 C 215.953125 181.605469 216.019531 181.882812 216.121094 182.367188 C 216.167969 182.609375 216.222656 182.902344 216.289062 183.238281 C 216.378906 183.570312 216.480469 183.945312 216.582031 184.347656 C 216.667969 184.757812 216.828125 185.183594 216.964844 185.644531 C 217.039062 185.871094 217.105469 186.105469 217.191406 186.34375 C 217.285156 186.574219 217.367188 186.820312 217.460938 187.0625 C 217.554688 187.304688 217.636719 187.558594 217.738281 187.804688 C 217.851562 188.046875 217.957031 188.296875 218.058594 188.550781 C 218.257812 189.0625 218.511719 189.558594 218.75 190.058594 C 218.972656 190.570312 219.253906 191.050781 219.496094 191.542969 C 219.769531 192.019531 220.015625 192.5 220.28125 192.949219 C 220.554688 193.398438 220.796875 193.84375 221.058594 194.25 C 221.308594 194.660156 221.554688 195.046875 221.78125 195.398438 C 222.011719 195.753906 222.226562 196.078125 222.414062 196.363281 Z M 223.082031 188.367188 C 222.007812 186.046875 220.152344 184.046875 218.503906 182.351562 C 217.34375 181.191406 216.378906 180.269531 215.886719 179.8125 C 215.476562 180.371094 214.738281 181.492188 214.1875 183.144531 C 213.726562 184.484375 213.066406 187.179688 213.785156 190.210938 C 213.957031 190.929688 214.191406 191.617188 214.488281 192.253906 C 215.660156 194.859375 217.660156 196.496094 219.132812 197.417969 C 219.394531 197.582031 219.65625 197.730469 219.902344 197.867188 C 220.332031 198.097656 220.761719 198.300781 221.183594 198.472656 C 222.800781 199.148438 224.136719 199.332031 224.828125 199.394531 C 224.808594 198.722656 224.746094 197.394531 224.628906 195.757812 C 224.429688 193.410156 224.132812 190.707031 223.082031 188.367188"/></g></g></g></svg>