<?xml version="1.0" encoding="UTF-8"?><svg xmlns="http://www.w3.org/2000/svg" xmlns:xlink="http://www.w3.org/1999/xlink" width="375" zoomAndPan="magnify" viewBox="0 0 375 374.999991" height="374.999991" preserveAspectRatio="xMidYMid meet" version="1.0"><defs><filter x="0%" y="0%" width="100%" xmlns:xlink="http://www.w3.org/1999/xlink" xlink:type="simple" xlink:actuate="onLoad" height="100%" id="filter-remove-color" xlink:show="other"><feColorMatrix values="0 0 0 0 1 0 0 0 0 1 0 0 0 0 1 0 0 0 1 0" color-interpolation-filters="sRGB"/></filter><clipPath id="clip-0"><path d="M 125 48.664062 L 236 48.664062 L 236 217 L 125 217 Z M 125 48.664062 " clip-rule="nonzero"/></clipPath><clipPath id="clip-1"><path d="M 91 177 L 274 177 L 274 326.335938 L 91 326.335938 Z M 91 177 " clip-rule="nonzero"/></clipPath><clipPath id="clip-2"><path d="M 77.296875 163 L 289 163 L 289 193 L 77.296875 193 Z M 77.296875 163 " clip-rule="nonzero"/></clipPath><mask id="mask-0"><g filter="url(#filter-remove-color)"><rect x="-37.5" width="450" fill="rgb(0%, 0%, 0%)" y="-37.499999" height="449.999989" fill-opacity="0.4"/></g></mask><clipPath id="clip-3"><path d="M 0.347656 0.128906 L 250 0.128906 L 250 374.984375 L 0.347656 374.984375 Z M 0.347656 0.128906 " clip-rule="nonzero"/></clipPath><clipPath id="clip-4"><rect x="0" width="252" y="0" height="375"/></clipPath></defs><g clip-path="url(#clip-0)"><path fill="rgb(86.669922%, 87.059021%, 87.059021%)" d="M 235.625 48.664062 L 235.625 216.226562 L 125.339844 216.226562 L 125.339844 48.664062 L 154.109375 48.664062 L 154.109375 91.75 L 206.855469 91.75 L 206.855469 48.664062 L 235.625 48.664062 " fill-opacity="1" fill-rule="nonzero"/></g><path fill="rgb(98.429871%, 81.959534%, 14.118958%)" d="M 204.910156 311.972656 L 173.289062 299.8125 L 266.363281 58.566406 L 297.984375 70.726562 L 204.910156 311.972656 " fill-opacity="1" fill-rule="nonzero"/><path fill="rgb(69.018555%, 43.139648%, 33.329773%)" d="M 211.648438 144.414062 L 211.648438 182.710938 L 163.699219 182.710938 L 163.699219 144.414062 C 163.699219 139.125 167.988281 134.835938 173.289062 134.835938 L 178.082031 134.835938 L 178.082031 110.902344 L 197.261719 110.902344 L 197.261719 134.835938 L 202.058594 134.835938 C 207.355469 134.835938 211.648438 139.125 211.648438 144.414062 " fill-opacity="1" fill-rule="nonzero"/><path fill="rgb(27.059937%, 50.979614%, 79.998779%)" d="M 130.132812 115.6875 L 110.953125 115.6875 L 110.953125 86.964844 L 130.132812 86.964844 L 130.132812 115.6875 " fill-opacity="1" fill-rule="nonzero"/><path fill="rgb(27.059937%, 50.979614%, 79.998779%)" d="M 144.519531 125.261719 L 144.519531 144.414062 L 96.570312 144.414062 L 96.570312 125.261719 L 144.519531 125.261719 " fill-opacity="1" fill-rule="nonzero"/><path fill="rgb(67.059326%, 85.099792%, 95.689392%)" d="M 144.519531 125.261719 L 96.570312 125.261719 C 96.570312 114.6875 105.15625 106.113281 115.75 106.113281 L 125.339844 106.113281 C 135.929688 106.113281 144.519531 114.6875 144.519531 125.261719 " fill-opacity="1" fill-rule="nonzero"/><path fill="rgb(67.059326%, 85.099792%, 95.689392%)" d="M 144.519531 144.414062 L 144.519531 163.5625 L 96.570312 163.5625 L 96.570312 144.414062 L 144.519531 144.414062 " fill-opacity="1" fill-rule="nonzero"/><g clip-path="url(#clip-1)"><path fill="rgb(38.819885%, 62.348938%, 40.779114%)" d="M 273.984375 177.925781 L 273.984375 192.289062 L 265.664062 308.550781 C 264.949219 318.574219 256.59375 326.335938 246.53125 326.335938 L 119.226562 326.335938 C 109.160156 326.335938 100.804688 318.574219 100.09375 308.550781 L 91.773438 192.289062 L 91.773438 177.925781 L 273.984375 177.925781 " fill-opacity="1" fill-rule="nonzero"/></g><g clip-path="url(#clip-2)"><path fill="rgb(51.368713%, 81.17981%, 50.979614%)" d="M 288.367188 192.289062 L 77.386719 192.289062 L 77.386719 173.136719 C 77.386719 167.851562 81.679688 163.5625 86.976562 163.5625 L 278.777344 163.5625 C 284.074219 163.5625 288.367188 167.851562 288.367188 173.136719 L 288.367188 192.289062 " fill-opacity="1" fill-rule="nonzero"/></g><path fill="rgb(51.368713%, 81.17981%, 50.979614%)" d="M 163.699219 288.035156 L 148.027344 288.035156 L 159.664062 267.914062 L 160.179688 269.828125 C 160.753906 271.964844 162.6875 273.378906 164.808594 273.378906 C 165.21875 273.378906 165.636719 273.324219 166.050781 273.214844 C 168.609375 272.527344 170.128906 269.902344 169.441406 267.347656 L 165.933594 254.269531 C 165.246094 251.714844 162.617188 250.203125 160.058594 250.886719 L 146.957031 254.390625 C 144.402344 255.074219 142.882812 257.699219 143.566406 260.25 C 144.253906 262.808594 146.882812 264.320312 149.441406 263.640625 L 151.359375 263.125 L 135.570312 290.429688 L 135.574219 290.433594 C 135.164062 291.136719 134.929688 291.949219 134.929688 292.824219 C 134.929688 295.46875 137.074219 297.613281 139.722656 297.613281 L 163.699219 297.613281 C 166.347656 297.613281 168.492188 295.46875 168.492188 292.824219 C 168.492188 290.179688 166.347656 288.035156 163.699219 288.035156 " fill-opacity="1" fill-rule="nonzero"/><path fill="rgb(51.368713%, 81.17981%, 50.979614%)" d="M 230.183594 290.429688 L 218.195312 269.699219 C 216.875 267.410156 213.941406 266.625 211.648438 267.945312 C 209.355469 269.269531 208.566406 272.195312 209.894531 274.488281 L 217.730469 288.035156 L 194.453125 288.035156 L 195.859375 286.632812 C 197.730469 284.765625 197.730469 281.730469 195.859375 279.863281 C 193.984375 277.996094 190.953125 277.996094 189.078125 279.863281 L 179.488281 289.4375 C 177.617188 291.308594 177.617188 294.339844 179.488281 296.210938 L 189.078125 305.785156 C 190.011719 306.71875 191.238281 307.1875 192.46875 307.1875 C 193.695312 307.1875 194.921875 306.71875 195.859375 305.785156 C 197.730469 303.914062 197.730469 300.882812 195.859375 299.015625 L 194.453125 297.613281 L 226.023438 297.613281 C 226.027344 297.613281 226.035156 297.613281 226.039062 297.613281 C 226.851562 297.613281 227.675781 297.402344 228.429688 296.96875 C 230.722656 295.648438 231.511719 292.71875 230.183594 290.429688 " fill-opacity="1" fill-rule="nonzero"/><path fill="rgb(51.368713%, 81.17981%, 50.979614%)" d="M 209.207031 235.835938 C 206.648438 235.152344 204.019531 236.667969 203.335938 239.21875 L 202.820312 241.136719 L 187.03125 213.832031 C 185.707031 211.542969 182.777344 210.753906 180.480469 212.078125 C 179.722656 212.515625 179.136719 213.128906 178.726562 213.832031 L 166.738281 234.5625 C 165.414062 236.851562 166.199219 239.777344 168.492188 241.097656 C 169.246094 241.535156 170.070312 241.742188 170.886719 241.742188 C 172.542969 241.742188 174.15625 240.882812 175.042969 239.347656 L 182.878906 225.796875 L 194.515625 245.925781 L 192.597656 245.410156 C 190.039062 244.726562 187.410156 246.242188 186.722656 248.796875 C 186.035156 251.351562 187.554688 253.976562 190.113281 254.65625 L 203.214844 258.164062 C 203.628906 258.273438 204.046875 258.328125 204.457031 258.328125 C 206.574219 258.328125 208.511719 256.914062 209.085938 254.78125 L 212.597656 241.699219 C 213.28125 239.144531 211.761719 236.519531 209.207031 235.835938 " fill-opacity="1" fill-rule="nonzero"/><g mask="url(#mask-0)"><g transform="matrix(1, 0, 0, 1, 62, 0)"><g id="source-5" clip-path="url(#clip-4)"><g clip-path="url(#clip-3)"><path fill="rgb(41.569519%, 76.078796%, 34.899902%)" d="M 125.199219 0.128906 L 0.398438 125.082031 L 62.800781 125.082031 L 62.800781 374.984375 L 125.199219 312.507812 L 187.601562 374.984375 L 187.601562 125.082031 L 250 125.082031 Z M 125.199219 0.128906 " fill-opacity="1" fill-rule="nonzero"/></g></g></g></g></svg>