<?xml version="1.0" encoding="UTF-8"?><svg xmlns="http://www.w3.org/2000/svg" xmlns:xlink="http://www.w3.org/1999/xlink" width="375" zoomAndPan="magnify" viewBox="0 0 375 374.999991" height="374.999991" preserveAspectRatio="xMidYMid meet" version="1.0"><defs><filter x="0%" y="0%" width="100%" xmlns:xlink="http://www.w3.org/1999/xlink" xlink:type="simple" xlink:actuate="onLoad" height="100%" id="filter-remove-color" xlink:show="other"><feColorMatrix values="0 0 0 0 1 0 0 0 0 1 0 0 0 0 1 0 0 0 1 0" color-interpolation-filters="sRGB"/></filter><mask id="mask-0"><g filter="url(#filter-remove-color)"><rect x="-37.5" width="450" fill="rgb(0%, 0%, 0%)" y="-37.499999" height="449.999989" fill-opacity="0.4"/></g></mask><clipPath id="clip-0"><path d="M 43 64 L 295 64 L 295 344 L 43 344 Z M 43 64 " clip-rule="nonzero"/></clipPath><clipPath id="clip-1"><path d="M 1.964844 246.46875 L 194.1875 0.410156 L 359.125 129.265625 L 166.902344 375.320312 Z M 1.964844 246.46875 " clip-rule="nonzero"/></clipPath><clipPath id="clip-2"><path d="M 1.964844 246.46875 L 194.1875 0.410156 L 359.125 129.265625 L 166.902344 375.320312 Z M 1.964844 246.46875 " clip-rule="nonzero"/></clipPath><clipPath id="clip-3"><rect x="0" width="360" y="0" height="375"/></clipPath><clipPath id="clip-4"><path d="M 48.5625 113.339844 L 326.488281 113.339844 L 326.488281 262 L 48.5625 262 Z M 48.5625 113.339844 " clip-rule="nonzero"/></clipPath></defs><g mask="url(#mask-0)"><g transform="matrix(1, 0, 0, 1, 7, 0)"><g id="source-5" clip-path="url(#clip-3)"><g clip-path="url(#clip-0)"><g clip-path="url(#clip-1)"><g clip-path="url(#clip-2)"><path fill="rgb(24.308777%, 71.369934%, 15.289307%)" d="M 276.59375 64.789062 L 130.152344 82.460938 L 171.335938 114.632812 L 43.1875 278.667969 L 116.40625 269.832031 L 125.550781 343.015625 L 253.699219 178.980469 L 294.882812 211.152344 Z M 276.59375 64.789062 " fill-opacity="1" fill-rule="nonzero"/></g></g></g></g></g></g><path fill="rgb(24.308777%, 71.369934%, 15.289307%)" d="M 239.121094 249.410156 C 238.910156 248.851562 238.863281 248.226562 238.980469 247.636719 C 238.398438 247.851562 237.792969 248.023438 237.164062 248.132812 C 236.566406 248.25 235.9375 248.292969 235.304688 248.292969 C 234.671875 248.292969 234.042969 248.238281 233.410156 248.109375 C 232 247.855469 230.683594 247.316406 229.488281 246.535156 C 229.324219 246.421875 229.171875 246.304688 229.011719 246.183594 C 229.035156 246.308594 229.058594 246.429688 229.066406 246.558594 C 229.089844 247.09375 228.925781 247.597656 228.652344 248.035156 C 228.332031 248.542969 227.851562 248.953125 227.300781 249.195312 C 227.390625 249.261719 227.480469 249.332031 227.570312 249.398438 C 229.167969 250.457031 230.933594 251.167969 232.78125 251.503906 C 233.597656 251.664062 234.441406 251.742188 235.292969 251.742188 L 235.347656 251.742188 C 236.1875 251.742188 237 251.675781 237.769531 251.527344 C 238.648438 251.375 239.496094 251.132812 240.316406 250.820312 C 239.738281 250.507812 239.339844 249.996094 239.121094 249.410156 " fill-opacity="1" fill-rule="nonzero"/><path fill="rgb(24.308777%, 71.369934%, 15.289307%)" d="M 235.34375 247.273438 C 235.980469 247.273438 236.5 246.757812 236.5 246.117188 C 236.5 245.730469 236.308594 245.390625 236.019531 245.179688 C 235.828125 245.039062 235.597656 244.957031 235.34375 244.957031 C 235.089844 244.957031 234.859375 245.039062 234.671875 245.179688 C 234.378906 245.386719 234.1875 245.730469 234.1875 246.117188 C 234.1875 246.757812 234.703125 247.273438 235.34375 247.273438 " fill-opacity="1" fill-rule="nonzero"/><path fill="rgb(24.308777%, 71.369934%, 15.289307%)" d="M 81.257812 244.472656 C 81.34375 244.382812 81.414062 244.277344 81.464844 244.171875 C 81.683594 243.734375 81.617188 243.195312 81.257812 242.832031 C 80.804688 242.378906 80.074219 242.378906 79.621094 242.832031 C 79.550781 242.902344 79.496094 242.980469 79.449219 243.058594 C 79.183594 243.503906 79.238281 244.089844 79.621094 244.472656 C 80.074219 244.925781 80.804688 244.925781 81.257812 244.472656 " fill-opacity="1" fill-rule="nonzero"/><path fill="rgb(24.308777%, 71.369934%, 15.289307%)" d="M 117.511719 253.414062 C 117.429688 253.273438 117.367188 253.132812 117.316406 252.996094 C 117.109375 252.429688 117.132812 251.863281 117.21875 251.234375 C 116.953125 251.300781 116.683594 251.367188 116.40625 251.417969 C 115.789062 251.542969 115.15625 251.597656 114.492188 251.585938 C 113.839844 251.585938 113.195312 251.53125 112.542969 251.394531 C 111.703125 251.246094 110.898438 250.988281 110.125 250.644531 C 110.109375 251.234375 109.929688 251.816406 109.601562 252.296875 C 109.21875 252.847656 108.640625 253.261719 107.851562 253.382812 C 109.132812 254.0625 110.5 254.535156 111.910156 254.785156 C 112.738281 254.957031 113.609375 255.039062 114.480469 255.039062 L 114.539062 255.039062 C 115.386719 255.039062 116.222656 254.96875 117.015625 254.820312 C 117.542969 254.726562 118.0625 254.601562 118.570312 254.453125 C 118.136719 254.191406 117.746094 253.816406 117.511719 253.414062 " fill-opacity="1" fill-rule="nonzero"/><path fill="rgb(24.308777%, 71.369934%, 15.289307%)" d="M 120.457031 240.710938 C 120.460938 240.414062 120.4375 240.121094 120.394531 239.832031 C 120.269531 238.957031 119.953125 238.144531 119.492188 237.4375 C 119.101562 236.839844 118.609375 236.320312 118.035156 235.902344 C 117.332031 235.378906 116.503906 235.015625 115.613281 234.855469 C 115.269531 234.785156 114.917969 234.753906 114.5625 234.753906 C 114.203125 234.75 113.851562 234.78125 113.507812 234.847656 C 112.617188 235 111.792969 235.355469 111.085938 235.867188 C 110.507812 236.28125 110.007812 236.792969 109.617188 237.386719 C 109.144531 238.09375 108.816406 238.910156 108.683594 239.785156 C 108.640625 240.074219 108.613281 240.367188 108.613281 240.664062 C 108.613281 241.085938 108.652344 241.5 108.742188 241.902344 C 108.914062 242.734375 109.257812 243.5 109.734375 244.160156 C 110.148438 244.734375 110.664062 245.230469 111.25 245.628906 C 111.910156 246.066406 112.65625 246.375 113.460938 246.515625 C 113.800781 246.585938 114.152344 246.621094 114.511719 246.621094 C 114.867188 246.625 115.222656 246.59375 115.566406 246.527344 C 116.375 246.390625 117.128906 246.082031 117.789062 245.644531 C 118.382812 245.257812 118.898438 244.757812 119.3125 244.183594 C 119.796875 243.53125 120.144531 242.769531 120.320312 241.953125 C 120.410156 241.550781 120.453125 241.132812 120.457031 240.710938 " fill-opacity="1" fill-rule="nonzero"/><path fill="rgb(24.308777%, 71.369934%, 15.289307%)" d="M 114.535156 233.246094 C 115.167969 233.246094 115.679688 232.746094 115.710938 232.117188 C 115.339844 232.082031 114.964844 232.058594 114.582031 232.054688 C 114.167969 232.054688 113.757812 232.074219 113.355469 232.117188 C 113.386719 232.746094 113.898438 233.246094 114.535156 233.246094 " fill-opacity="1" fill-rule="nonzero"/><path fill="rgb(24.308777%, 71.369934%, 15.289307%)" d="M 115.71875 249.316406 C 115.71875 248.660156 115.1875 248.128906 114.535156 248.128906 C 113.878906 248.128906 113.347656 248.660156 113.347656 249.316406 C 113.347656 249.96875 113.878906 250.5 114.535156 250.5 C 115.1875 250.5 115.71875 249.96875 115.71875 249.316406 " fill-opacity="1" fill-rule="nonzero"/><path fill="rgb(24.308777%, 71.369934%, 15.289307%)" d="M 121.460938 235.429688 C 121.75 235.136719 121.855469 234.738281 121.785156 234.363281 C 121.3125 234.027344 120.816406 233.722656 120.292969 233.453125 C 120.109375 233.507812 119.929688 233.601562 119.785156 233.75 C 119.324219 234.214844 119.324219 234.964844 119.785156 235.429688 C 120.246094 235.894531 120.996094 235.894531 121.460938 235.429688 " fill-opacity="1" fill-rule="nonzero"/><path fill="rgb(24.308777%, 71.369934%, 15.289307%)" d="M 109.285156 247.628906 C 109.75 247.167969 109.75 246.414062 109.285156 245.953125 C 108.824219 245.488281 108.074219 245.488281 107.609375 245.953125 C 107.148438 246.414062 107.148438 247.167969 107.609375 247.628906 C 108.074219 248.09375 108.824219 248.09375 109.285156 247.628906 " fill-opacity="1" fill-rule="nonzero"/><path fill="rgb(24.308777%, 71.369934%, 15.289307%)" d="M 123.144531 241.882812 C 123.800781 241.882812 124.328125 241.351562 124.328125 240.695312 C 124.328125 240.039062 123.800781 239.507812 123.144531 239.507812 C 122.488281 239.507812 121.960938 240.039062 121.960938 240.695312 C 121.960938 241.351562 122.488281 241.882812 123.144531 241.882812 " fill-opacity="1" fill-rule="nonzero"/><path fill="rgb(24.308777%, 71.369934%, 15.289307%)" d="M 105.929688 239.507812 C 105.273438 239.507812 104.742188 240.039062 104.742188 240.695312 C 104.742188 241.351562 105.273438 241.882812 105.929688 241.882812 C 106.582031 241.882812 107.113281 241.351562 107.113281 240.695312 C 107.113281 240.039062 106.582031 239.507812 105.929688 239.507812 " fill-opacity="1" fill-rule="nonzero"/><path fill="rgb(24.308777%, 71.369934%, 15.289307%)" d="M 121.457031 245.960938 C 120.996094 245.496094 120.246094 245.496094 119.78125 245.960938 C 119.320312 246.421875 119.320312 247.175781 119.78125 247.636719 C 120.246094 248.101562 120.996094 248.101562 121.457031 247.636719 C 121.917969 247.175781 121.917969 246.421875 121.457031 245.960938 " fill-opacity="1" fill-rule="nonzero"/><path fill="rgb(24.308777%, 71.369934%, 15.289307%)" d="M 109.28125 235.4375 C 109.746094 234.972656 109.746094 234.222656 109.28125 233.757812 C 109.136719 233.613281 108.957031 233.515625 108.773438 233.460938 C 108.253906 233.730469 107.757812 234.035156 107.28125 234.375 C 107.210938 234.746094 107.320312 235.148438 107.609375 235.4375 C 108.070312 235.898438 108.820312 235.898438 109.28125 235.4375 " fill-opacity="1" fill-rule="nonzero"/><path fill="rgb(24.308777%, 71.369934%, 15.289307%)" d="M 275.648438 253.414062 C 275.570312 253.273438 275.507812 253.132812 275.457031 252.996094 C 275.246094 252.429688 275.269531 251.863281 275.359375 251.234375 C 275.089844 251.300781 274.820312 251.367188 274.546875 251.417969 C 273.925781 251.542969 273.296875 251.597656 272.628906 251.585938 C 271.976562 251.585938 271.335938 251.53125 270.683594 251.394531 C 269.839844 251.246094 269.035156 250.988281 268.265625 250.644531 C 268.25 251.234375 268.070312 251.816406 267.738281 252.296875 C 267.359375 252.847656 266.78125 253.261719 265.988281 253.382812 C 267.273438 254.0625 268.640625 254.535156 270.050781 254.785156 C 270.875 254.957031 271.746094 255.039062 272.617188 255.039062 L 272.675781 255.039062 C 273.523438 255.039062 274.363281 254.96875 275.152344 254.820312 C 275.683594 254.726562 276.199219 254.601562 276.710938 254.453125 C 276.273438 254.191406 275.882812 253.816406 275.648438 253.414062 " fill-opacity="1" fill-rule="nonzero"/><path fill="rgb(24.308777%, 71.369934%, 15.289307%)" d="M 284.660156 232.8125 C 283.699219 231.367188 282.515625 230.109375 281.140625 229.125 C 279.410156 227.835938 277.378906 226.949219 275.292969 226.582031 C 274.453125 226.421875 273.59375 226.339844 272.734375 226.332031 C 271.871094 226.339844 271.003906 226.410156 270.199219 226.5625 C 268.101562 226.917969 266.070312 227.777344 264.324219 229.03125 C 262.914062 230.042969 261.710938 231.285156 260.769531 232.699219 C 259.589844 234.480469 258.832031 236.4375 258.523438 238.507812 C 258.421875 239.21875 258.363281 239.929688 258.351562 240.632812 C 258.351562 241.667969 258.453125 242.679688 258.660156 243.621094 C 259.058594 245.597656 259.875 247.4375 261.066406 249.09375 C 261.574219 249.796875 262.144531 250.445312 262.769531 251.042969 C 262.667969 250.332031 262.804688 249.582031 263.167969 248.972656 C 263.464844 248.480469 263.898438 248.078125 264.492188 247.867188 C 264.265625 247.609375 264.054688 247.34375 263.855469 247.070312 C 262.949219 245.816406 262.339844 244.425781 262.019531 242.90625 C 261.871094 242.195312 261.792969 241.425781 261.792969 240.644531 C 261.804688 240.113281 261.835938 239.574219 261.929688 239.023438 C 262 238.539062 262.117188 238.0625 262.253906 237.59375 C 262.246094 237.605469 262.238281 237.613281 262.230469 237.625 C 262.222656 237.640625 262.214844 237.652344 262.203125 237.667969 C 261.21875 239.148438 260.515625 240.839844 260.246094 242.664062 C 260.128906 242 260.070312 241.320312 260.070312 240.632812 C 260.082031 240 260.128906 239.378906 260.21875 238.769531 C 260.496094 236.90625 261.195312 235.171875 262.203125 233.664062 C 263.042969 232.398438 264.105469 231.308594 265.335938 230.433594 C 266.839844 229.34375 268.59375 228.582031 270.484375 228.261719 C 271.21875 228.125 271.964844 228.054688 272.722656 228.054688 C 273.492188 228.066406 274.234375 228.136719 274.972656 228.273438 C 276.863281 228.617188 278.628906 229.398438 280.121094 230.503906 C 281.335938 231.390625 282.390625 232.503906 283.214844 233.769531 C 284.203125 235.273438 284.878906 237.011719 285.144531 238.875 C 285.222656 239.484375 285.28125 240.101562 285.269531 240.734375 C 285.269531 241.402344 285.222656 242.058594 285.109375 242.703125 C 284.835938 240.910156 284.171875 239.230469 283.214844 237.769531 C 283.183594 237.71875 283.148438 237.667969 283.117188 237.617188 C 283.109375 237.605469 283.101562 237.597656 283.09375 237.585938 C 283.238281 238.085938 283.363281 238.59375 283.433594 239.113281 C 283.515625 239.667969 283.5625 240.207031 283.550781 240.734375 C 283.550781 241.519531 283.46875 242.285156 283.296875 243.011719 C 282.976562 244.492188 282.347656 245.90625 281.449219 247.113281 C 280.847656 247.945312 280.148438 248.667969 279.363281 249.28125 C 279.457031 249.320312 279.554688 249.351562 279.652344 249.402344 C 280.089844 249.636719 280.421875 250.015625 280.660156 250.445312 C 280.789062 250.660156 280.894531 250.886719 280.96875 251.121094 C 281.089844 251.492188 281.085938 251.921875 281.011719 252.335938 C 282.242188 251.457031 283.324219 250.390625 284.226562 249.160156 C 285.398438 247.566406 286.246094 245.703125 286.65625 243.757812 C 286.875 242.804688 286.992188 241.792969 286.992188 240.746094 C 287 240.058594 286.945312 239.34375 286.839844 238.632812 C 286.554688 236.550781 285.820312 234.597656 284.660156 232.8125 " fill-opacity="1" fill-rule="nonzero"/><path fill="rgb(24.308777%, 71.369934%, 15.289307%)" d="M 278.597656 240.710938 C 278.597656 240.414062 278.574219 240.121094 278.535156 239.832031 C 278.410156 238.957031 278.09375 238.144531 277.632812 237.4375 C 277.238281 236.839844 276.746094 236.320312 276.175781 235.902344 C 275.472656 235.378906 274.644531 235.015625 273.753906 234.855469 C 273.410156 234.785156 273.054688 234.753906 272.699219 234.753906 C 272.339844 234.75 271.988281 234.78125 271.644531 234.847656 C 270.753906 235 269.929688 235.355469 269.222656 235.867188 C 268.648438 236.28125 268.144531 236.792969 267.753906 237.386719 C 267.28125 238.09375 266.953125 238.910156 266.824219 239.785156 C 266.78125 240.074219 266.753906 240.367188 266.753906 240.664062 C 266.753906 241.085938 266.792969 241.5 266.878906 241.902344 C 267.050781 242.734375 267.394531 243.5 267.871094 244.160156 C 268.289062 244.734375 268.804688 245.230469 269.390625 245.628906 C 270.046875 246.066406 270.792969 246.375 271.597656 246.515625 C 271.941406 246.585938 272.292969 246.621094 272.652344 246.621094 C 273.007812 246.625 273.359375 246.59375 273.703125 246.527344 C 274.511719 246.390625 275.265625 246.082031 275.925781 245.644531 C 276.519531 245.257812 277.035156 244.757812 277.453125 244.183594 C 277.933594 243.53125 278.28125 242.769531 278.457031 241.953125 C 278.550781 241.550781 278.59375 241.132812 278.597656 240.710938 " fill-opacity="1" fill-rule="nonzero"/><path fill="rgb(24.308777%, 71.369934%, 15.289307%)" d="M 272.671875 233.246094 C 273.304688 233.246094 273.820312 232.746094 273.851562 232.117188 C 273.480469 232.082031 273.105469 232.058594 272.722656 232.054688 C 272.308594 232.054688 271.898438 232.074219 271.492188 232.117188 C 271.523438 232.746094 272.035156 233.246094 272.671875 233.246094 " fill-opacity="1" fill-rule="nonzero"/><path fill="rgb(24.308777%, 71.369934%, 15.289307%)" d="M 273.855469 249.316406 C 273.855469 248.660156 273.324219 248.128906 272.671875 248.128906 C 272.019531 248.128906 271.488281 248.660156 271.488281 249.316406 C 271.488281 249.96875 272.019531 250.5 272.671875 250.5 C 273.324219 250.5 273.855469 249.96875 273.855469 249.316406 " fill-opacity="1" fill-rule="nonzero"/><path fill="rgb(24.308777%, 71.369934%, 15.289307%)" d="M 279.597656 235.429688 C 279.886719 235.136719 279.996094 234.738281 279.925781 234.363281 C 279.449219 234.027344 278.953125 233.722656 278.433594 233.453125 C 278.246094 233.507812 278.070312 233.601562 277.921875 233.75 C 277.460938 234.214844 277.460938 234.964844 277.921875 235.429688 C 278.386719 235.894531 279.136719 235.894531 279.597656 235.429688 " fill-opacity="1" fill-rule="nonzero"/><path fill="rgb(24.308777%, 71.369934%, 15.289307%)" d="M 267.425781 247.628906 C 267.886719 247.167969 267.886719 246.414062 267.425781 245.953125 C 266.960938 245.488281 266.214844 245.488281 265.75 245.953125 C 265.289062 246.414062 265.289062 247.167969 265.75 247.628906 C 266.214844 248.09375 266.960938 248.09375 267.425781 247.628906 " fill-opacity="1" fill-rule="nonzero"/><path fill="rgb(24.308777%, 71.369934%, 15.289307%)" d="M 282.46875 240.695312 C 282.46875 240.039062 281.9375 239.507812 281.285156 239.507812 C 280.628906 239.507812 280.097656 240.039062 280.097656 240.695312 C 280.097656 241.351562 280.628906 241.882812 281.285156 241.882812 C 281.9375 241.882812 282.46875 241.351562 282.46875 240.695312 " fill-opacity="1" fill-rule="nonzero"/><path fill="rgb(24.308777%, 71.369934%, 15.289307%)" d="M 264.066406 239.507812 C 263.414062 239.507812 262.882812 240.039062 262.882812 240.695312 C 262.882812 241.351562 263.414062 241.882812 264.066406 241.882812 C 264.71875 241.882812 265.25 241.351562 265.25 240.695312 C 265.25 240.039062 264.71875 239.507812 264.066406 239.507812 " fill-opacity="1" fill-rule="nonzero"/><path fill="rgb(24.308777%, 71.369934%, 15.289307%)" d="M 279.597656 245.960938 C 279.132812 245.496094 278.382812 245.496094 277.921875 245.960938 C 277.457031 246.421875 277.457031 247.175781 277.921875 247.636719 C 278.382812 248.101562 279.132812 248.101562 279.597656 247.636719 C 280.058594 247.175781 280.058594 246.421875 279.597656 245.960938 " fill-opacity="1" fill-rule="nonzero"/><path fill="rgb(24.308777%, 71.369934%, 15.289307%)" d="M 267.421875 235.4375 C 267.882812 234.972656 267.882812 234.222656 267.421875 233.757812 C 267.273438 233.613281 267.097656 233.515625 266.910156 233.460938 C 266.394531 233.730469 265.894531 234.035156 265.421875 234.375 C 265.351562 234.746094 265.460938 235.148438 265.746094 235.4375 C 266.207031 235.898438 266.960938 235.898438 267.421875 235.4375 " fill-opacity="1" fill-rule="nonzero"/><g clip-path="url(#clip-4)"><path fill="rgb(24.308777%, 71.369934%, 15.289307%)" d="M 141.992188 117.957031 L 321.894531 117.957031 L 321.894531 127.25 L 141.992188 127.25 Z M 311.226562 222.839844 L 311.226562 131.847656 L 317.492188 131.847656 L 317.492188 222.839844 Z M 318.347656 227.957031 L 314.769531 232.0625 L 311.34375 235.992188 L 296.730469 235.992188 C 296.734375 235.734375 296.742188 235.472656 296.742188 235.210938 C 296.742188 234.15625 296.671875 233.105469 296.53125 232.0625 C 296.328125 230.488281 295.972656 228.9375 295.464844 227.441406 L 318.109375 227.441406 C 318.167969 227.441406 318.3125 227.441406 318.398438 227.625 C 318.480469 227.808594 318.386719 227.914062 318.347656 227.957031 Z M 293.355469 222.839844 C 290.796875 218.496094 287.023438 215.140625 282.585938 213.117188 C 281.316406 212.53125 279.996094 212.0625 278.628906 211.703125 L 278.628906 131.847656 L 308.929688 131.847656 L 308.929688 222.839844 Z M 292.65625 242.90625 C 292.570312 242.121094 292.433594 241.347656 292.257812 240.589844 L 292.78125 240.589844 C 292.78125 240.652344 292.785156 240.710938 292.785156 240.769531 C 292.785156 241.496094 292.738281 242.207031 292.65625 242.90625 Z M 291.960938 237.953125 L 291.8125 238.949219 C 291.695312 238.589844 291.570312 238.226562 291.433594 237.871094 L 291.433594 237.878906 C 291.46875 238.074219 291.492188 238.28125 291.515625 238.476562 C 291.539062 238.625 291.550781 238.773438 291.5625 238.921875 C 291.585938 239.226562 291.605469 239.535156 291.617188 239.84375 C 291.625 239.945312 291.628906 240.054688 291.632812 240.15625 L 291.570312 240.589844 L 291.640625 240.589844 C 291.640625 240.648438 291.640625 240.707031 291.640625 240.765625 C 291.640625 241.085938 291.628906 241.398438 291.617188 241.71875 C 291.605469 242.039062 291.574219 242.363281 291.539062 242.671875 C 291.503906 242.984375 291.46875 243.304688 291.410156 243.613281 C 291.320312 244.234375 291.207031 244.84375 291.035156 245.441406 C 290.976562 245.660156 290.917969 245.878906 290.835938 246.109375 C 290.816406 246.214844 290.769531 246.328125 290.734375 246.445312 C 290.722656 246.5 290.703125 246.558594 290.691406 246.617188 C 290.632812 246.8125 290.5625 247.003906 290.484375 247.203125 C 289.566406 249.800781 288.050781 252.179688 286.03125 254.183594 C 283.257812 256.941406 279.78125 258.722656 276.007812 259.390625 L 275.953125 259.410156 L 275.929688 259.410156 C 274.863281 259.597656 273.78125 259.699219 272.683594 259.699219 L 272.601562 259.699219 C 271.671875 259.699219 270.824219 259.628906 269.929688 259.480469 L 269.722656 259.480469 C 267.441406 259.125 265.191406 258.355469 263.21875 257.160156 L 263.140625 257.113281 C 261.71875 256.292969 260.398438 255.273438 259.214844 254.066406 C 255.648438 250.46875 253.699219 245.683594 253.710938 240.601562 C 253.710938 239.683594 253.777344 238.765625 253.917969 237.878906 L 253.917969 237.855469 C 253.921875 237.847656 253.921875 237.835938 253.921875 237.824219 C 253.921875 237.828125 253.921875 237.828125 253.921875 237.828125 C 253.691406 238.421875 253.5 239.03125 253.324219 239.652344 L 253.074219 237.953125 C 253.015625 237.570312 252.976562 237.171875 252.945312 236.761719 C 254.769531 227.5 262.917969 220.523438 272.671875 220.523438 C 272.699219 220.523438 272.726562 220.523438 272.753906 220.523438 C 282.085938 220.5625 289.90625 226.972656 292.140625 235.621094 C 292.125 236.429688 292.070312 237.214844 291.960938 237.953125 Z M 235.351562 257.375 C 235.324219 257.375 235.296875 257.375 235.269531 257.375 C 226.785156 257.339844 219.589844 251.921875 216.871094 244.371094 L 223.039062 244.371094 C 223.191406 244.65625 223.347656 244.941406 223.527344 245.21875 C 223.707031 244.894531 223.953125 244.609375 224.238281 244.371094 L 228.503906 244.371094 C 228.53125 244.40625 228.554688 244.441406 228.585938 244.472656 C 229.039062 244.925781 229.769531 244.925781 230.222656 244.472656 C 230.253906 244.441406 230.277344 244.40625 230.304688 244.371094 L 240.378906 244.371094 C 240.40625 244.40625 240.433594 244.445312 240.46875 244.480469 C 240.917969 244.929688 241.652344 244.929688 242.101562 244.480469 C 242.136719 244.445312 242.164062 244.40625 242.195312 244.371094 L 242.382812 244.371094 C 242.523438 245.152344 242.691406 245.917969 242.917969 246.683594 C 242.953125 246.8125 242.996094 246.949219 243.042969 247.078125 L 243.042969 247.097656 C 243.0625 247.152344 243.082031 247.207031 243.101562 247.261719 C 243.261719 247.757812 243.445312 248.246094 243.640625 248.730469 C 243.789062 249.074219 243.9375 249.421875 244.109375 249.753906 C 244.132812 249.835938 244.179688 249.914062 244.226562 249.984375 L 244.226562 249.996094 C 244.257812 250.066406 244.292969 250.144531 244.328125 250.214844 C 244.386719 250.339844 244.453125 250.46875 244.519531 250.59375 C 244.613281 250.777344 244.710938 250.960938 244.820312 251.144531 C 244.902344 251.285156 244.984375 251.433594 245.074219 251.570312 C 245.152344 251.707031 245.246094 251.847656 245.335938 251.984375 C 245.40625 252.101562 245.476562 252.203125 245.546875 252.304688 C 245.601562 252.398438 245.671875 252.492188 245.726562 252.582031 C 245.792969 252.679688 245.867188 252.777344 245.933594 252.875 C 245.933594 252.875 245.933594 252.878906 245.933594 252.878906 C 245.933594 252.878906 245.933594 252.882812 245.9375 252.882812 C 245.949219 252.902344 245.964844 252.925781 245.980469 252.945312 C 246.128906 253.148438 246.277344 253.347656 246.429688 253.535156 C 246.492188 253.625 246.558594 253.714844 246.632812 253.804688 C 243.4375 256.054688 239.546875 257.375 235.351562 257.375 Z M 146.234375 240.921875 L 146.234375 238.304688 L 241.746094 238.304688 L 241.746094 240.921875 Z M 241.746094 233.390625 L 241.746094 236.003906 L 146.234375 236.003906 L 146.234375 233.390625 Z M 206.5625 136.066406 L 206.5625 167.523438 C 205.609375 167.523438 204.65625 167.523438 203.699219 167.523438 C 203.683594 167.59375 203.664062 167.660156 203.644531 167.726562 C 204.613281 168.3125 205.582031 168.898438 206.5625 169.492188 L 206.5625 173.246094 C 206.335938 173.625 206.105469 174 205.863281 174.371094 C 204.738281 176.097656 204.765625 177.757812 205.742188 179.558594 C 206.019531 180.074219 206.289062 180.589844 206.5625 181.105469 L 206.5625 222.839844 L 173.96875 222.839844 L 173.96875 131.847656 L 206.5625 131.847656 Z M 241.453125 136.066406 L 241.453125 157.210938 C 241.0625 156.589844 240.691406 155.988281 240.40625 155.351562 C 239.277344 152.832031 237.464844 151.574219 234.65625 151.867188 C 234.074219 151.925781 233.480469 151.808594 232.890625 151.800781 C 229.6875 151.75 226.472656 151.839844 223.28125 151.621094 C 220.652344 151.4375 218.601562 152.207031 217.28125 154.457031 C 215.734375 157.097656 214.300781 159.808594 212.8125 162.542969 C 212.636719 162.859375 212.46875 163.171875 212.292969 163.488281 C 212.46875 163.585938 212.636719 163.679688 212.8125 163.773438 C 216.269531 165.683594 219.683594 167.570312 223.140625 169.480469 C 225.109375 165.90625 227 162.460938 228.972656 158.871094 C 230.117188 160.820312 231.191406 162.644531 232.3125 164.5625 C 230.519531 165.605469 228.789062 166.609375 227.0625 167.613281 C 227.09375 167.679688 227.121094 167.746094 227.152344 167.808594 C 231.34375 167.617188 235.53125 167.410156 239.726562 167.25 C 240.445312 167.222656 240.847656 166.933594 241.179688 166.3125 C 241.265625 166.144531 241.359375 165.976562 241.453125 165.808594 L 241.453125 168.566406 C 239.648438 169.613281 237.84375 170.660156 236.007812 171.722656 C 237.859375 174.976562 239.65625 178.128906 241.453125 181.28125 L 241.453125 182.140625 C 239.40625 182.140625 237.46875 182.140625 235.476562 182.144531 C 235.476562 180.039062 235.476562 178.074219 235.472656 176.050781 C 235.347656 176.136719 235.277344 176.160156 235.25 176.210938 C 233.199219 180 231.144531 183.785156 229.136719 187.59375 C 228.996094 187.855469 229.105469 188.359375 229.269531 188.65625 C 230.414062 190.71875 231.605469 192.75 232.777344 194.796875 C 233.628906 196.273438 234.472656 197.753906 235.324219 199.230469 C 235.410156 199.207031 235.496094 199.183594 235.585938 199.160156 C 235.582031 197.414062 235.582031 195.667969 235.582031 193.882812 C 237.230469 193.882812 238.742188 193.816406 240.246094 193.894531 C 240.679688 193.917969 241.078125 193.886719 241.453125 193.816406 L 241.453125 222.839844 L 208.855469 222.839844 L 208.855469 185.476562 C 209.8125 187.320312 210.761719 189.167969 211.722656 191.011719 C 212.027344 191.605469 212.394531 192.121094 212.8125 192.570312 C 213.65625 193.46875 214.734375 194.050781 216.089844 194.148438 C 218.328125 194.308594 220.578125 194.273438 222.820312 194.304688 C 224.210938 194.324219 225.597656 194.308594 227.011719 194.304688 C 227.007812 190.089844 227.003906 186.011719 227 181.796875 C 223 181.796875 219.085938 181.800781 214.984375 181.804688 C 216.167969 179.796875 217.242188 177.980469 218.324219 176.140625 C 220.152344 177.25 221.863281 178.285156 223.742188 179.421875 C 223.632812 179.113281 223.609375 179.011719 223.5625 178.929688 C 221.324219 175.289062 219.09375 171.644531 216.828125 168.019531 C 216.671875 167.773438 216.265625 167.539062 215.972656 167.535156 C 214.917969 167.527344 213.867188 167.527344 212.8125 167.527344 C 211.492188 167.523438 210.175781 167.519531 208.855469 167.519531 L 208.855469 131.847656 L 241.453125 131.847656 Z M 252.683594 242.90625 C 252.59375 242.148438 252.558594 241.390625 252.558594 240.609375 C 252.558594 240.601562 252.558594 240.597656 252.558594 240.589844 L 253.082031 240.589844 C 252.910156 241.347656 252.769531 242.121094 252.683594 242.90625 Z M 276.335938 136.066406 L 276.335938 211.234375 C 275.085938 211.039062 273.8125 210.933594 272.515625 210.933594 C 263.882812 210.933594 256.027344 215.460938 251.679688 222.839844 L 243.746094 222.839844 L 243.746094 192.589844 C 244.082031 192.246094 244.390625 191.847656 244.671875 191.386719 C 245.671875 189.761719 246.683594 188.148438 247.699219 186.539062 C 248.960938 184.535156 250.234375 182.542969 251.507812 180.550781 C 252.832031 178.488281 252.878906 176.414062 251.734375 174.292969 C 251.160156 173.222656 250.535156 172.179688 249.929688 171.125 C 249.1875 169.832031 248.441406 168.53125 247.699219 167.234375 C 247.371094 166.660156 247.042969 166.089844 246.710938 165.515625 C 245.71875 166.09375 244.730469 166.664062 243.746094 167.234375 L 243.746094 161.566406 C 244.257812 160.625 244.773438 159.6875 245.285156 158.746094 C 245.808594 157.792969 246.335938 156.839844 246.859375 155.882812 L 246.710938 155.742188 C 245.730469 156.308594 244.742188 156.882812 243.746094 157.460938 L 243.746094 131.847656 L 276.335938 131.847656 Z M 151.328125 144.71875 C 150.203125 142.71875 148.617188 141.082031 146.75 139.890625 L 146.75 131.847656 L 171.675781 131.847656 L 171.675781 222.839844 L 146.753906 222.839844 L 146.753906 150.304688 L 148.027344 150.304688 C 149.367188 150.304688 150.617188 149.585938 151.292969 148.421875 C 151.96875 147.261719 151.980469 145.875 151.328125 144.71875 Z M 142.792969 231.773438 L 142.792969 235.992188 L 133.972656 235.992188 C 133.003906 235.992188 132.21875 235.203125 132.21875 234.234375 L 132.21875 229.199219 C 132.21875 228.230469 133.003906 227.441406 133.972656 227.441406 L 249.566406 227.441406 C 249.09375 228.847656 248.753906 230.300781 248.542969 231.773438 C 248.378906 232.910156 248.292969 234.058594 248.292969 235.210938 C 248.292969 235.472656 248.296875 235.734375 248.304688 235.992188 L 245.1875 235.992188 L 245.1875 229.941406 L 142.792969 229.941406 Z M 134.519531 242.90625 C 134.433594 242.121094 134.292969 241.347656 134.121094 240.589844 L 134.640625 240.589844 C 134.640625 240.652344 134.644531 240.710938 134.644531 240.769531 C 134.644531 241.496094 134.597656 242.207031 134.519531 242.90625 Z M 133.480469 241.71875 C 133.46875 242.039062 133.433594 242.363281 133.398438 242.671875 C 133.363281 242.984375 133.332031 243.304688 133.273438 243.613281 C 133.183594 244.234375 133.066406 244.84375 132.894531 245.441406 C 132.835938 245.660156 132.78125 245.878906 132.699219 246.109375 C 132.675781 246.214844 132.632812 246.328125 132.597656 246.445312 C 132.585938 246.5 132.5625 246.558594 132.550781 246.617188 C 132.492188 246.8125 132.425781 247.003906 132.34375 247.203125 C 131.425781 249.800781 129.914062 252.179688 127.894531 254.183594 C 125.121094 256.941406 121.644531 258.722656 117.871094 259.390625 L 117.8125 259.410156 L 117.789062 259.410156 C 116.722656 259.597656 115.644531 259.699219 114.542969 259.699219 L 114.464844 259.699219 C 113.535156 259.699219 112.683594 259.628906 111.789062 259.480469 L 111.582031 259.480469 C 109.300781 259.125 107.054688 258.355469 105.078125 257.160156 L 105 257.113281 C 103.578125 256.292969 102.257812 255.273438 101.078125 254.066406 C 97.539062 250.496094 95.589844 245.753906 95.574219 240.714844 C 98.605469 239.484375 100.390625 235.136719 100.84375 230.367188 C 100.921875 229.5625 100.960938 228.742188 100.960938 227.921875 L 100.960938 225.816406 C 104.542969 222.527344 109.308594 220.523438 114.535156 220.523438 C 114.5625 220.523438 114.589844 220.523438 114.617188 220.523438 C 119.976562 220.546875 124.835938 222.675781 128.425781 226.121094 C 128.230469 226.476562 128.066406 226.851562 127.9375 227.246094 C 127.738281 227.863281 127.628906 228.519531 127.628906 229.199219 L 127.628906 234.234375 C 127.628906 234.480469 127.644531 234.71875 127.671875 234.957031 C 127.355469 234.21875 126.96875 233.503906 126.523438 232.8125 C 125.5625 231.367188 124.378906 230.109375 123.003906 229.125 C 121.273438 227.835938 119.242188 226.949219 117.152344 226.582031 C 116.316406 226.421875 115.457031 226.339844 114.59375 226.332031 C 113.734375 226.339844 112.863281 226.410156 112.058594 226.5625 C 109.960938 226.917969 107.933594 227.777344 106.1875 229.03125 C 104.777344 230.042969 103.574219 231.285156 102.632812 232.699219 C 101.449219 234.480469 100.691406 236.4375 100.382812 238.507812 C 100.28125 239.21875 100.222656 239.929688 100.210938 240.632812 C 100.210938 241.667969 100.316406 242.679688 100.523438 243.621094 C 100.921875 245.597656 101.738281 247.4375 102.929688 249.09375 C 103.4375 249.796875 104.007812 250.445312 104.632812 251.042969 C 104.527344 250.332031 104.667969 249.582031 105.03125 248.972656 C 105.324219 248.480469 105.761719 248.078125 106.351562 247.867188 C 106.128906 247.609375 105.914062 247.34375 105.71875 247.070312 C 104.8125 245.816406 104.203125 244.425781 103.882812 242.90625 C 103.734375 242.195312 103.652344 241.425781 103.652344 240.644531 C 103.664062 240.113281 103.699219 239.574219 103.792969 239.023438 C 103.863281 238.539062 103.976562 238.0625 104.113281 237.59375 C 104.109375 237.605469 104.101562 237.613281 104.09375 237.625 C 104.085938 237.640625 104.074219 237.652344 104.066406 237.667969 C 103.078125 239.148438 102.378906 240.839844 102.105469 242.664062 C 101.992188 242 101.929688 241.320312 101.929688 240.632812 C 101.945312 240 101.992188 239.378906 102.082031 238.769531 C 102.355469 236.90625 103.054688 235.171875 104.066406 233.664062 C 104.902344 232.398438 105.96875 231.308594 107.195312 230.433594 C 108.699219 229.34375 110.453125 228.582031 112.347656 228.261719 C 113.082031 228.125 113.824219 228.054688 114.582031 228.054688 C 115.351562 228.066406 116.097656 228.136719 116.832031 228.273438 C 118.726562 228.617188 120.492188 229.398438 121.980469 230.503906 C 123.199219 231.390625 124.253906 232.503906 125.078125 233.769531 C 126.0625 235.273438 126.742188 237.011719 127.007812 238.875 C 127.085938 239.484375 127.144531 240.101562 127.132812 240.734375 C 127.132812 241.402344 127.085938 242.058594 126.96875 242.703125 C 126.695312 240.910156 126.03125 239.230469 125.078125 237.769531 C 125.046875 237.71875 125.011719 237.667969 124.976562 237.617188 C 124.972656 237.605469 124.960938 237.597656 124.953125 237.585938 C 125.101562 238.085938 125.222656 238.59375 125.296875 239.113281 C 125.375 239.667969 125.421875 240.207031 125.410156 240.734375 C 125.410156 241.519531 125.332031 242.285156 125.15625 243.011719 C 124.835938 244.492188 124.207031 245.90625 123.3125 247.113281 C 122.707031 247.945312 122.007812 248.667969 121.222656 249.28125 C 121.320312 249.320312 121.414062 249.351562 121.511719 249.402344 C 121.953125 249.636719 122.28125 250.015625 122.523438 250.445312 C 122.648438 250.660156 122.757812 250.886719 122.832031 251.121094 C 122.949219 251.492188 122.949219 251.921875 122.875 252.335938 C 124.101562 251.457031 125.183594 250.390625 126.085938 249.160156 C 127.257812 247.566406 128.105469 245.703125 128.519531 243.757812 C 128.738281 242.804688 128.851562 241.792969 128.851562 240.746094 C 128.863281 240.058594 128.808594 239.34375 128.703125 238.632812 C 128.644531 238.210938 128.5625 237.792969 128.46875 237.382812 C 129.488281 239.164062 131.34375 240.40625 133.5 240.570312 C 133.5 240.632812 133.503906 240.699219 133.503906 240.765625 C 133.503906 241.085938 133.492188 241.398438 133.480469 241.71875 Z M 86.386719 257.375 C 86.359375 257.375 86.332031 257.375 86.304688 257.375 C 76.628906 257.335938 68.628906 250.292969 67.039062 241.0625 L 72.78125 241.0625 C 73.148438 242.535156 73.742188 243.925781 74.5625 245.21875 C 74.847656 244.707031 75.296875 244.285156 75.820312 244.007812 C 76.210938 243.804688 76.644531 243.683594 77.089844 243.683594 L 77.230469 243.683594 C 77.390625 243.683594 77.542969 243.707031 77.695312 243.730469 C 77.117188 242.902344 76.671875 242.011719 76.359375 241.0625 L 81.679688 241.0625 C 81.683594 241.070312 81.6875 241.078125 81.691406 241.085938 C 82.097656 241.644531 82.601562 242.128906 83.175781 242.515625 C 83.449219 242.699219 83.746094 242.855469 84.050781 242.988281 C 84.078125 243.230469 84.089844 243.472656 84.125 243.707031 L 84.125 243.71875 C 84.191406 244.160156 84.273438 244.59375 84.367188 245.027344 C 84.484375 245.582031 84.617188 246.132812 84.78125 246.683594 C 84.8125 246.8125 84.859375 246.949219 84.90625 247.078125 L 84.90625 247.097656 C 85.027344 247.484375 85.164062 247.859375 85.3125 248.238281 C 85.023438 248.207031 84.734375 248.167969 84.445312 248.109375 C 83.035156 247.855469 81.714844 247.316406 80.523438 246.535156 C 80.359375 246.421875 80.203125 246.300781 80.046875 246.183594 C 80.066406 246.308594 80.09375 246.429688 80.101562 246.558594 C 80.121094 247.09375 79.960938 247.597656 79.683594 248.035156 C 79.363281 248.542969 78.886719 248.953125 78.332031 249.195312 C 78.425781 249.261719 78.511719 249.332031 78.609375 249.398438 C 80.203125 250.457031 81.96875 251.167969 83.816406 251.503906 C 84.628906 251.664062 85.480469 251.742188 86.328125 251.742188 L 86.386719 251.742188 C 86.601562 251.742188 86.8125 251.722656 87.027344 251.714844 C 87.082031 251.804688 87.136719 251.894531 87.199219 251.984375 C 87.269531 252.101562 87.335938 252.203125 87.40625 252.304688 C 87.460938 252.398438 87.53125 252.492188 87.589844 252.582031 C 87.671875 252.707031 87.761719 252.832031 87.851562 252.957031 C 87.886719 253.007812 87.921875 253.054688 87.957031 253.101562 C 88.066406 253.25 88.175781 253.398438 88.289062 253.535156 C 88.449219 253.753906 88.632812 253.972656 88.816406 254.191406 C 89.183594 254.664062 89.585938 255.097656 90.007812 255.527344 C 90.101562 255.621094 90.199219 255.707031 90.296875 255.800781 C 90.292969 255.800781 90.292969 255.800781 90.289062 255.800781 C 90.34375 255.855469 90.402344 255.902344 90.457031 255.953125 C 90.6875 256.171875 90.917969 256.382812 91.160156 256.589844 C 91.214844 256.640625 91.269531 256.695312 91.328125 256.746094 C 89.75 257.160156 88.09375 257.375 86.386719 257.375 Z M 94.546875 242.90625 C 94.472656 242.28125 94.441406 241.65625 94.429688 241.015625 C 94.578125 240.996094 94.722656 240.96875 94.863281 240.9375 C 94.726562 241.585938 94.617188 242.242188 94.546875 242.90625 Z M 55.730469 236.464844 C 55.289062 236.386719 54.101562 234.816406 53.5 231.773438 C 53.285156 230.679688 53.144531 229.398438 53.144531 227.921875 L 53.144531 227.84375 L 96.375 227.84375 L 96.375 227.921875 C 96.375 229.398438 96.234375 230.679688 96.019531 231.773438 C 95.417969 234.816406 94.230469 236.386719 93.792969 236.464844 Z M 58.753906 220.5625 L 74.933594 220.5625 L 74.933594 222.839844 L 58.753906 222.839844 Z M 58.753906 216.753906 L 74.933594 216.753906 L 74.933594 218.839844 L 58.753906 218.839844 Z M 58.753906 212.949219 L 74.933594 212.949219 L 74.933594 215.03125 L 58.753906 215.03125 Z M 58.753906 209.816406 L 60.335938 209.816406 C 60.816406 209.816406 61.289062 209.757812 61.734375 209.644531 C 61.917969 209.609375 62.089844 209.550781 62.261719 209.480469 C 63.710938 208.976562 64.902344 207.917969 65.566406 206.550781 C 65.75 206.195312 65.886719 205.804688 65.988281 205.402344 C 66.09375 205.035156 66.152344 204.640625 66.164062 204.25 C 66.175781 204.160156 66.175781 204.054688 66.175781 203.964844 C 66.175781 204.054688 66.175781 204.160156 66.1875 204.25 C 66.199219 204.640625 66.253906 205.035156 66.359375 205.402344 C 66.460938 205.804688 66.597656 206.195312 66.78125 206.550781 C 67.445312 207.917969 68.640625 208.976562 70.085938 209.480469 C 70.257812 209.550781 70.429688 209.609375 70.613281 209.644531 C 71.058594 209.757812 71.53125 209.816406 72.015625 209.816406 L 74.933594 209.816406 L 74.933594 211.222656 L 58.753906 211.222656 Z M 58.753906 204.832031 L 58.753906 202.035156 L 62.734375 202.035156 L 62.734375 203.964844 C 62.734375 204.066406 62.722656 204.160156 62.710938 204.25 C 62.6875 204.453125 62.636719 204.648438 62.566406 204.832031 C 62.488281 205.035156 62.378906 205.230469 62.253906 205.402344 C 61.816406 205.988281 61.117188 206.367188 60.335938 206.367188 L 58.753906 206.367188 Z M 74.933594 202.035156 L 74.933594 206.367188 L 72.015625 206.367188 C 71.234375 206.367188 70.535156 205.988281 70.097656 205.402344 C 69.96875 205.230469 69.863281 205.035156 69.78125 204.832031 C 69.710938 204.648438 69.660156 204.453125 69.640625 204.25 C 69.625 204.160156 69.617188 204.066406 69.617188 203.964844 L 69.617188 202.035156 Z M 65.0625 192.9375 L 75.761719 185.363281 L 89.386719 185.363281 L 77.714844 195.464844 C 76.90625 196.164062 75.871094 196.546875 74.804688 196.546875 L 59.964844 196.546875 Z M 69.972656 175.40625 L 69.972656 168.617188 L 75.304688 168.617188 L 75.304688 176.941406 L 73.179688 181.566406 L 72.285156 182.203125 L 69.972656 182.203125 Z M 78.664062 180.613281 L 91.890625 180.613281 C 92.683594 180.613281 93.402344 180.152344 93.722656 179.453125 L 103.75 158.308594 C 104.046875 157.679688 103.992188 156.941406 103.621094 156.355469 C 103.246094 155.769531 102.601562 155.425781 101.914062 155.425781 L 90.214844 155.425781 L 90.59375 154.609375 L 106.722656 154.609375 L 93.265625 181.914062 L 78.070312 181.914062 Z M 92.652344 177.710938 L 84.585938 177.710938 C 84.46875 177.628906 84.339844 177.566406 84.1875 177.566406 C 84.039062 177.566406 83.90625 177.628906 83.792969 177.710938 L 81.480469 177.710938 L 84.523438 174.140625 L 98.589844 157.640625 L 99.011719 157.148438 L 101.914062 157.148438 C 102.050781 157.148438 102.132812 157.230469 102.167969 157.289062 C 102.203125 157.34375 102.246094 157.449219 102.191406 157.574219 Z M 84.832031 178.109375 L 92.464844 178.109375 L 92.175781 178.714844 C 92.121094 178.820312 92.015625 178.890625 91.890625 178.890625 L 84.296875 178.890625 C 84.613281 178.835938 84.859375 178.570312 84.859375 178.238281 C 84.859375 178.195312 84.839844 178.152344 84.832031 178.109375 Z M 81.214844 178.109375 L 83.542969 178.109375 C 83.539062 178.152344 83.519531 178.195312 83.519531 178.238281 C 83.519531 178.570312 83.765625 178.835938 84.082031 178.890625 L 80.679688 178.890625 C 80.996094 178.835938 81.242188 178.570312 81.242188 178.238281 C 81.242188 178.195312 81.222656 178.152344 81.214844 178.109375 Z M 81.753906 173.878906 L 81.867188 173.632812 L 92.167969 161.546875 L 91.890625 161.308594 L 82.425781 172.414062 L 89.425781 157.148438 L 95.480469 157.148438 L 93.019531 160.039062 L 93.296875 160.273438 L 95.835938 157.300781 L 95.65625 157.148438 L 98.53125 157.148438 L 98.503906 157.179688 L 84.058594 174.121094 L 81.183594 177.496094 L 81.429688 177.710938 L 80.964844 177.710938 C 80.851562 177.628906 80.722656 177.566406 80.570312 177.566406 C 80.199219 177.566406 79.898438 177.867188 79.898438 178.238281 C 79.898438 178.570312 80.144531 178.835938 80.460938 178.890625 L 79.457031 178.890625 Z M 104.578125 178.613281 C 104.359375 179.050781 104.378906 179.554688 104.644531 179.960938 C 104.898438 180.371094 105.332031 180.613281 105.816406 180.613281 L 112.925781 180.613281 L 112.925781 182.199219 L 101.511719 182.199219 L 112.925781 159.042969 L 112.925781 161.667969 Z M 110.144531 177.804688 L 112.925781 174.542969 L 112.925781 177.375 L 111.945312 178.523438 L 112.222656 178.761719 L 112.925781 177.9375 L 112.925781 178.890625 L 106.351562 178.890625 L 112.925781 165.5625 L 112.925781 173.980469 L 109.867188 177.566406 Z M 120 211.226562 L 120 185.078125 L 124.046875 185.078125 L 124.046875 185.074219 L 138.265625 185.074219 L 138.265625 222.839844 L 133.582031 222.839844 C 130.738281 217.324219 125.878906 213.171875 120 211.226562 Z M 120.753906 168.617188 L 121.179688 168.617188 L 121.179688 182.203125 L 115.847656 182.203125 L 115.847656 168.617188 Z M 124.046875 180.613281 L 135.175781 180.613281 C 136.21875 180.613281 137.070312 179.761719 137.070312 178.714844 L 137.070312 158.148438 C 137.070312 157.101562 136.21875 156.25 135.175781 156.25 L 123.652344 156.25 C 122.605469 156.25 121.757812 157.101562 121.757812 158.148438 L 121.757812 165.742188 L 119.984375 165.742188 L 119.96875 154.320312 L 138.261719 154.296875 L 138.261719 182.199219 L 124.046875 182.199219 Z M 128.804688 158.746094 L 123.476562 164.996094 L 123.476562 162.214844 L 125.679688 159.632812 L 125.402344 159.394531 L 123.476562 161.648438 L 123.476562 158.148438 C 123.476562 158.054688 123.546875 157.976562 123.652344 157.976562 L 135.175781 157.976562 C 135.269531 157.976562 135.351562 158.054688 135.351562 158.148438 L 135.351562 178.714844 C 135.351562 178.820312 135.269531 178.890625 135.175781 178.890625 L 125.460938 178.890625 L 134.644531 168.117188 L 134.644531 167.554688 L 124.980469 178.890625 L 124.046875 178.890625 L 124.046875 177.152344 L 133.425781 166.15625 L 133.144531 165.917969 L 124.046875 176.585938 L 124.046875 165.742188 L 123.476562 165.742188 L 123.476562 165.5625 L 129.082031 158.984375 Z M 93.597656 219.472656 C 92.796875 220.535156 92.078125 221.65625 91.464844 222.839844 L 78.375 222.839844 L 78.375 219.472656 Z M 78.375 217.75 L 78.375 199.136719 C 78.9375 198.847656 79.476562 198.496094 79.964844 198.078125 L 86.621094 192.316406 L 88.664062 190.546875 L 108.867188 190.546875 C 109.1875 190.546875 109.460938 190.761719 109.460938 191.015625 L 109.460938 210.214844 C 104.292969 210.886719 99.4375 213.277344 95.742188 216.988281 C 95.5 217.234375 95.273438 217.492188 95.042969 217.75 Z M 141.128906 180.945312 L 141.128906 154.296875 C 141.128906 152.722656 139.855469 151.445312 138.296875 151.445312 L 119.96875 151.445312 C 118.410156 151.445312 117.136719 152.722656 117.136719 154.296875 L 117.136719 165.742188 L 115.792969 165.742188 L 115.792969 153.332031 C 115.792969 152.609375 115.308594 151.988281 114.609375 151.828125 C 113.902344 151.664062 113.199219 152.011719 112.878906 152.652344 L 112.070312 154.296875 L 98.472656 181.902344 C 98.128906 182.589844 98.175781 183.382812 98.574219 184.039062 C 98.71875 184.273438 98.902344 184.46875 99.109375 184.628906 C 99.488281 184.914062 99.953125 185.074219 100.445312 185.074219 L 112.980469 185.074219 L 112.980469 185.078125 L 117.136719 185.078125 L 117.136719 210.46875 C 115.632812 210.171875 114.09375 210.011719 112.523438 210.011719 C 112.054688 210.011719 111.609375 210.023438 111.183594 210.050781 L 111.183594 191.015625 C 111.183594 189.804688 110.140625 188.820312 108.867188 188.820312 L 90.65625 188.820312 L 95.132812 184.949219 L 95.097656 184.910156 C 95.601562 184.609375 96.015625 184.164062 96.273438 183.625 L 110.105469 155.539062 C 110.285156 155.140625 110.371094 154.71875 110.382812 154.296875 C 110.394531 153.699219 110.234375 153.105469 109.898438 152.585938 C 109.335938 151.6875 108.371094 151.160156 107.316406 151.160156 L 92.359375 151.160156 L 92.839844 150.304688 L 142.160156 150.304688 L 142.160156 222.839844 L 141.132812 222.839844 L 141.132812 180.945312 Z M 90.535156 144.113281 C 92.074219 142.984375 93.945312 142.332031 95.90625 142.332031 L 139.402344 142.332031 C 141.367188 142.332031 143.238281 142.984375 144.777344 144.113281 C 145.402344 144.570312 145.972656 145.097656 146.46875 145.707031 L 88.847656 145.707031 C 89.339844 145.097656 89.914062 144.570312 90.535156 144.113281 Z M 137.40625 131.847656 L 142.160156 131.847656 L 142.160156 138.019531 C 141.265625 137.832031 140.34375 137.734375 139.402344 137.734375 L 95.90625 137.734375 C 90.980469 137.734375 86.414062 140.410156 83.984375 144.71875 C 83.328125 145.875 83.34375 147.261719 84.019531 148.421875 C 84.695312 149.585938 85.949219 150.304688 87.285156 150.304688 L 87.578125 150.304688 L 87.257812 150.882812 L 78.175781 170.6875 L 78.175781 165.742188 L 67.105469 165.742188 L 67.105469 185.078125 L 68.238281 185.078125 L 57.570312 192.652344 C 55.496094 193.753906 54.199219 195.882812 54.167969 198.273438 L 54.167969 223.242188 L 48.558594 223.242188 L 48.558594 227.921875 C 48.558594 234.453125 51.019531 241.0625 55.726562 241.0625 L 57.824219 241.0625 C 58.515625 245.261719 60.472656 249.128906 63.515625 252.207031 C 67.402344 256.125 72.574219 258.296875 78.082031 258.320312 L 83.636719 258.34375 C 84.503906 258.460938 85.386719 258.527344 86.292969 258.527344 L 86.386719 258.527344 C 87.519531 258.527344 88.632812 258.4375 89.714844 258.253906 L 89.726562 258.253906 C 90.707031 258.15625 91.675781 257.988281 92.621094 257.753906 C 96.171875 260.332031 100.425781 261.738281 104.898438 261.757812 L 110.414062 261.78125 L 111.582031 261.78125 C 112.523438 261.929688 113.488281 262 114.453125 262 L 114.542969 262 C 115.863281 262 117.160156 261.871094 118.417969 261.640625 C 122.59375 260.871094 126.4375 258.871094 129.511719 255.824219 C 132.046875 253.296875 133.871094 250.25 134.867188 246.902344 C 135.074219 246.25 135.246094 245.59375 135.371094 244.914062 C 135.648438 243.570312 135.796875 242.175781 135.796875 240.765625 C 135.796875 240.707031 135.792969 240.648438 135.792969 240.589844 L 142.792969 240.589844 L 142.792969 244.371094 L 207.617188 244.371094 C 208.613281 247.285156 210.253906 249.957031 212.480469 252.207031 C 216.371094 256.125 221.542969 258.296875 227.046875 258.320312 L 232.597656 258.34375 C 233.46875 258.460938 234.355469 258.527344 235.261719 258.527344 L 235.351562 258.527344 C 236.488281 258.527344 237.601562 258.4375 238.679688 258.253906 L 238.6875 258.253906 C 241.945312 257.933594 245.03125 256.859375 247.757812 255.113281 C 247.886719 255.253906 248.011719 255.390625 248.148438 255.527344 C 252.117188 259.515625 257.402344 261.734375 263.035156 261.757812 L 268.554688 261.78125 L 269.722656 261.78125 C 270.664062 261.929688 271.625 262 272.589844 262 L 272.683594 262 C 274 262 275.296875 261.871094 276.558594 261.640625 C 280.734375 260.871094 284.574219 258.871094 287.652344 255.824219 C 290.183594 253.296875 292.007812 250.25 293.007812 246.902344 C 293.210938 246.25 293.386719 245.59375 293.511719 244.914062 C 293.785156 243.570312 293.9375 242.175781 293.9375 240.765625 C 293.9375 240.707031 293.929688 240.648438 293.929688 240.589844 L 313.425781 240.589844 L 321.796875 230.988281 C 323.082031 229.519531 323.378906 227.503906 322.578125 225.726562 C 322.4375 225.425781 322.265625 225.148438 322.078125 224.886719 L 322.078125 131.847656 L 326.484375 131.847656 L 326.484375 113.359375 L 137.40625 113.359375 L 137.40625 131.847656 " fill-opacity="1" fill-rule="nonzero"/></g><path fill="rgb(24.308777%, 71.369934%, 15.289307%)" d="M 134.644531 164.769531 L 134.644531 164.207031 L 134.199219 164.726562 L 134.476562 164.964844 L 134.644531 164.769531 " fill-opacity="1" fill-rule="nonzero"/><path fill="rgb(24.308777%, 71.369934%, 15.289307%)" d="M 122.433594 190.105469 L 124.039062 190.105469 L 124.039062 197.097656 L 122.433594 197.097656 Z M 120.714844 188.382812 L 120.714844 198.820312 L 125.757812 198.820312 L 125.757812 188.382812 L 120.714844 188.382812 " fill-opacity="1" fill-rule="nonzero"/></svg>