<?xml version="1.0" encoding="UTF-8"?><svg xmlns="http://www.w3.org/2000/svg" xmlns:xlink="http://www.w3.org/1999/xlink" width="375" zoomAndPan="magnify" viewBox="0 0 375 374.999991" height="374.999991" preserveAspectRatio="xMidYMid meet" version="1.0"><defs><filter x="0%" y="0%" width="100%" xmlns:xlink="http://www.w3.org/1999/xlink" xlink:type="simple" xlink:actuate="onLoad" height="100%" id="filter-remove-color" xlink:show="other"><feColorMatrix values="0 0 0 0 1 0 0 0 0 1 0 0 0 0 1 0 0 0 1 0" color-interpolation-filters="sRGB"/></filter><mask id="mask-0"><g filter="url(#filter-remove-color)"><rect x="-37.5" width="450" fill="rgb(0%, 0%, 0%)" y="-37.499999" height="449.999989" fill-opacity="0.4078"/></g></mask><clipPath id="clip-0"><path d="M 65 66 L 343 66 L 343 320 L 65 320 Z M 65 66 " clip-rule="nonzero"/></clipPath><clipPath id="clip-1"><path d="M 244.269531 359.929688 L 0.109375 164.191406 L 130.832031 1.132812 L 374.992188 196.867188 Z M 244.269531 359.929688 " clip-rule="nonzero"/></clipPath><clipPath id="clip-2"><path d="M 244.269531 359.929688 L 0.109375 164.191406 L 130.832031 1.132812 L 374.992188 196.867188 Z M 244.269531 359.929688 " clip-rule="nonzero"/></clipPath><clipPath id="clip-3"><rect x="0" width="375" y="0" height="361"/></clipPath><clipPath id="clip-4"><path d="M 93.796875 59.796875 L 280.671875 59.796875 L 280.671875 315.230469 L 93.796875 315.230469 Z M 93.796875 59.796875 " clip-rule="nonzero"/></clipPath></defs><g mask="url(#mask-0)"><g transform="matrix(1, 0, 0, 1, 0, 7)"><g id="source-5" clip-path="url(#clip-3)"><g clip-path="url(#clip-0)"><g clip-path="url(#clip-1)"><g clip-path="url(#clip-2)"><path fill="rgb(24.308777%, 71.369934%, 15.289307%)" d="M 65.417969 82.726562 L 81.527344 229.402344 L 114.167969 188.6875 L 276.941406 319.179688 L 268.886719 245.839844 L 342.21875 237.75 L 179.445312 107.257812 L 212.085938 66.542969 Z M 65.417969 82.726562 " fill-opacity="1" fill-rule="nonzero"/></g></g></g></g></g></g><path fill="rgb(24.308777%, 71.369934%, 15.289307%)" d="M 187.234375 157.714844 C 152.125 157.714844 123.5625 186.359375 123.5625 221.570312 C 123.5625 256.78125 152.125 285.429688 187.234375 285.429688 C 222.34375 285.429688 250.910156 256.78125 250.910156 221.570312 C 250.910156 186.359375 222.34375 157.714844 187.234375 157.714844 Z M 193.890625 230.683594 C 195.65625 225.6875 198.585938 220.046875 203.394531 216.925781 C 208.179688 213.820312 214.199219 213.679688 219.109375 214.320312 Z M 223.027344 221.925781 C 221.261719 226.917969 218.332031 232.558594 213.523438 235.679688 C 208.742188 238.789062 202.722656 238.929688 197.808594 238.285156 Z M 176.667969 228.820312 C 171.753906 229.460938 165.738281 229.320312 160.953125 226.214844 C 156.140625 223.097656 153.214844 217.460938 151.449219 212.460938 Z M 155.355469 204.859375 C 160.269531 204.214844 166.28125 204.359375 171.074219 207.464844 C 175.886719 210.582031 178.8125 216.21875 180.578125 221.21875 Z M 191.480469 276.699219 L 191.480469 245.777344 C 194.398438 246.472656 198.140625 247.105469 202.214844 247.105469 C 207.425781 247.105469 213.117188 246.078125 218.128906 242.824219 C 231.390625 234.21875 233.800781 213.867188 233.902344 213 C 234.117188 211.097656 233.035156 209.289062 231.261719 208.574219 C 230.496094 208.269531 212.195312 201.074219 198.789062 209.765625 C 194.632812 212.460938 191.546875 216.308594 189.261719 220.351562 C 187.140625 213.644531 183.117188 205.128906 175.683594 200.308594 C 162.28125 191.605469 143.976562 198.800781 143.210938 199.109375 C 141.441406 199.820312 140.359375 201.636719 140.570312 203.539062 C 140.667969 204.402344 143.085938 224.757812 156.347656 233.355469 C 161.359375 236.609375 167.050781 237.636719 172.261719 237.636719 C 176.335938 237.636719 180.078125 237.003906 182.996094 236.308594 L 182.996094 276.691406 C 154.546875 274.511719 132.050781 250.652344 132.050781 221.570312 C 132.050781 191.054688 156.808594 166.226562 187.234375 166.226562 C 217.664062 166.226562 242.417969 191.054688 242.417969 221.570312 C 242.417969 250.652344 219.925781 274.511719 191.480469 276.699219 Z M 191.480469 276.699219 " fill-opacity="1" fill-rule="nonzero"/><g clip-path="url(#clip-4)"><path fill="rgb(24.308777%, 71.369934%, 15.289307%)" d="M 276.378906 110.882812 L 229.683594 110.882812 L 229.683594 102.371094 C 229.683594 78.894531 210.640625 59.796875 187.234375 59.796875 C 163.828125 59.796875 144.789062 78.894531 144.789062 102.371094 L 144.789062 110.882812 L 98.09375 110.882812 C 95.746094 110.882812 93.847656 112.792969 93.847656 115.140625 L 93.847656 302.457031 C 93.847656 309.5 99.5625 315.230469 106.582031 315.230469 L 267.886719 315.230469 C 274.910156 315.230469 280.621094 309.5 280.621094 302.457031 L 280.621094 115.140625 C 280.621094 112.792969 278.726562 110.882812 276.378906 110.882812 Z M 153.277344 102.371094 C 153.277344 83.589844 168.511719 68.3125 187.234375 68.3125 C 205.960938 68.3125 221.195312 83.589844 221.195312 102.371094 L 221.195312 110.882812 L 153.277344 110.882812 Z M 272.132812 302.457031 C 272.132812 304.804688 270.230469 306.714844 267.886719 306.714844 L 106.582031 306.714844 C 104.238281 306.714844 102.339844 304.804688 102.339844 302.457031 L 102.339844 119.398438 L 144.789062 119.398438 L 144.789062 132.171875 L 140.542969 132.171875 L 140.542969 140.683594 L 157.523438 140.683594 L 157.523438 132.171875 L 153.277344 132.171875 L 153.277344 119.398438 L 221.195312 119.398438 L 221.195312 132.171875 L 216.949219 132.171875 L 216.949219 140.683594 L 233.929688 140.683594 L 233.929688 132.171875 L 229.683594 132.171875 L 229.683594 119.398438 L 272.132812 119.398438 Z M 272.132812 302.457031 " fill-opacity="1" fill-rule="nonzero"/></g><path fill="rgb(24.308777%, 71.369934%, 15.289307%)" d="M 110.828125 289.6875 L 119.316406 289.6875 L 119.316406 298.203125 L 110.828125 298.203125 Z M 110.828125 289.6875 " fill-opacity="1" fill-rule="nonzero"/><path fill="rgb(24.308777%, 71.369934%, 15.289307%)" d="M 255.152344 289.6875 L 263.644531 289.6875 L 263.644531 298.203125 L 255.152344 298.203125 Z M 255.152344 289.6875 " fill-opacity="1" fill-rule="nonzero"/></svg>