<svg xmlns="http://www.w3.org/2000/svg" width="375" viewBox="0 0 375 375" height="375" version="1.0"><defs><clipPath id="a"><path d="M 53.671875 0 L 321.421875 0 L 321.421875 375 L 53.671875 375 Z M 53.671875 0"/></clipPath></defs><path fill="#49AB30" d="M 242.296875 17.128906 L 207.351562 17.128906 C 205.226562 17.128906 203.503906 18.851562 203.503906 20.972656 C 203.503906 23.097656 205.226562 24.820312 207.351562 24.820312 L 242.296875 24.820312 C 244.421875 24.820312 246.144531 23.097656 246.144531 20.972656 C 246.144531 18.851562 244.421875 17.128906 242.296875 17.128906 Z M 242.296875 17.128906"/><path fill="#49AB30" d="M 184.695312 17.128906 L 175.269531 17.128906 C 173.144531 17.128906 171.421875 18.851562 171.421875 20.972656 C 171.421875 23.097656 173.144531 24.820312 175.269531 24.820312 L 184.695312 24.820312 C 186.816406 24.820312 188.539062 23.097656 188.539062 20.972656 C 188.539062 18.851562 186.816406 17.128906 184.695312 17.128906 Z M 184.695312 17.128906"/><g clip-path="url(#a)"><path fill="#49AB30" d="M 313.078125 343.828125 C 317.832031 339.730469 320.851562 333.675781 320.851562 326.921875 L 320.851562 253.9375 C 320.851562 253.882812 320.835938 253.835938 320.835938 253.78125 C 320.550781 245.378906 314.507812 238.410156 306.535156 236.707031 L 306.535156 36.726562 C 306.535156 36.71875 306.53125 36.714844 306.53125 36.710938 L 306.53125 23.164062 C 306.53125 10.390625 296.136719 0 283.359375 0 L 166.28125 0 C 153.507812 0 143.117188 10.390625 143.117188 23.164062 L 143.117188 36.726562 C 143.117188 36.726562 143.117188 36.730469 143.117188 36.734375 L 143.117188 45.988281 C 139.03125 45.851562 134.941406 47.050781 131.566406 49.484375 L 89.640625 79.699219 C 86.890625 72.832031 80.167969 67.96875 72.328125 67.96875 C 62.046875 67.96875 53.679688 76.332031 53.679688 86.609375 L 53.679688 189.597656 C 53.679688 194.578125 55.621094 199.257812 59.144531 202.78125 C 62.664062 206.300781 67.347656 208.242188 72.328125 208.242188 C 79.492188 208.242188 85.71875 204.179688 88.84375 198.242188 C 93.445312 203.941406 100.484375 207.597656 108.363281 207.597656 L 143.117188 207.597656 L 143.117188 231.046875 C 143.117188 243.816406 153.511719 254.203125 166.285156 254.203125 L 199.125 254.203125 L 199.125 279.808594 C 199.125 283.558594 196.035156 286.609375 192.238281 286.609375 C 190.359375 286.609375 188.613281 285.863281 187.320312 284.511719 C 187.304688 284.492188 187.285156 284.484375 187.269531 284.46875 C 187.257812 284.453125 187.246094 284.4375 187.234375 284.421875 L 171.230469 268.695312 C 167.8125 265.277344 163.269531 263.394531 158.433594 263.394531 C 153.597656 263.394531 149.050781 265.277344 145.632812 268.695312 C 138.578125 275.753906 138.578125 287.234375 145.632812 294.289062 L 200.820312 349.453125 C 199.21875 352.015625 198.289062 355.039062 198.289062 358.28125 C 198.289062 367.5 205.792969 375 215.015625 375 L 304.679688 375 C 313.902344 375 321.410156 367.5 321.414062 358.28125 C 321.414062 352.117188 318.058594 346.726562 313.078125 343.828125 Z M 83.28125 189.597656 C 83.28125 195.636719 78.367188 200.550781 72.328125 200.550781 C 69.402344 200.550781 66.652344 199.414062 64.585938 197.34375 C 62.515625 195.273438 61.375 192.523438 61.375 189.597656 L 61.375 86.609375 C 61.375 80.570312 66.289062 75.660156 72.328125 75.660156 C 78.367188 75.660156 83.28125 80.570312 83.28125 86.609375 Z M 143.117188 83.785156 L 114.273438 104.578125 C 112.550781 105.820312 112.160156 108.222656 113.402344 109.945312 C 114.15625 110.988281 115.332031 111.542969 116.527344 111.542969 C 117.304688 111.542969 118.09375 111.304688 118.773438 110.816406 L 143.117188 93.265625 L 143.117188 199.902344 L 108.363281 199.902344 C 98.777344 199.902344 90.976562 192.109375 90.976562 182.527344 C 90.976562 182.519531 90.972656 182.515625 90.972656 182.511719 L 90.972656 88.21875 L 136.0625 55.722656 C 138.121094 54.242188 140.628906 53.542969 143.117188 53.683594 Z M 235.324219 213.640625 L 235.324219 178.640625 C 235.324219 168.664062 227.203125 160.546875 217.226562 160.546875 C 207.246094 160.546875 199.125 168.664062 199.125 178.640625 L 199.125 213.640625 L 150.8125 213.640625 L 150.8125 40.566406 L 298.839844 40.566406 L 298.839844 213.640625 Z M 298.839844 221.332031 L 298.839844 236.738281 C 295.699219 237.433594 292.863281 238.9375 290.570312 241.03125 C 287.648438 234.945312 281.425781 230.734375 274.238281 230.734375 C 269.632812 230.734375 265.425781 232.464844 262.226562 235.308594 C 259.359375 228.855469 252.960938 224.234375 245.730469 224.234375 C 241.890625 224.234375 238.289062 225.542969 235.324219 227.726562 L 235.324219 221.332031 Z M 150.8125 23.164062 C 150.8125 14.632812 157.75 7.691406 166.28125 7.691406 L 283.359375 7.691406 C 291.894531 7.691406 298.839844 14.628906 298.839844 23.164062 L 298.839844 32.878906 L 150.8125 32.878906 Z M 166.285156 246.511719 C 157.753906 246.511719 150.8125 239.574219 150.8125 231.042969 L 150.8125 221.332031 L 199.125 221.332031 L 199.125 246.511719 Z M 151.074219 288.847656 C 147.015625 284.792969 147.015625 278.191406 151.074219 274.132812 C 153.039062 272.167969 155.652344 271.085938 158.433594 271.085938 C 161.210938 271.085938 163.824219 272.167969 165.8125 274.15625 L 181.839844 289.90625 C 181.851562 289.917969 181.867188 289.925781 181.882812 289.941406 C 184.628906 292.75 188.292969 294.300781 192.238281 294.300781 C 200.277344 294.300781 206.816406 287.800781 206.816406 279.808594 L 206.816406 178.640625 C 206.816406 172.902344 211.484375 168.238281 217.222656 168.238281 C 222.960938 168.238281 227.628906 172.902344 227.628906 178.640625 L 227.628906 254.746094 C 227.628906 256.871094 229.351562 258.589844 231.476562 258.589844 C 233.601562 258.589844 235.324219 256.871094 235.324219 254.746094 L 235.324219 242.816406 C 235.324219 242.808594 235.324219 242.800781 235.324219 242.792969 C 235.324219 236.902344 240.089844 231.925781 245.730469 231.925781 C 251.371094 231.925781 256.136719 236.902344 256.136719 242.792969 L 256.136719 258.945312 C 256.136719 261.066406 257.859375 262.789062 259.984375 262.789062 C 262.109375 262.789062 263.828125 261.066406 263.828125 258.945312 L 263.828125 248.867188 C 263.828125 248.851562 263.832031 248.839844 263.832031 248.828125 C 263.832031 243.089844 268.5 238.425781 274.238281 238.425781 C 279.976562 238.425781 284.644531 243.089844 284.644531 248.828125 L 284.644531 264.976562 C 284.644531 267.101562 286.363281 268.824219 288.488281 268.824219 C 290.613281 268.824219 292.335938 267.101562 292.335938 264.976562 L 292.335938 254.460938 C 292.335938 254.441406 292.34375 254.421875 292.34375 254.398438 C 292.34375 248.664062 297.011719 244 302.75 244 C 308.488281 244 313.15625 248.664062 313.15625 254.398438 L 313.15625 326.921875 C 313.15625 334.988281 306.589844 341.550781 298.523438 341.550781 C 298.5 341.550781 298.484375 341.558594 298.460938 341.558594 L 215.015625 341.558594 C 211.816406 341.558594 208.820312 342.464844 206.273438 344.03125 Z M 304.679688 367.308594 L 215.015625 367.308594 C 210.035156 367.308594 205.984375 363.257812 205.984375 358.28125 C 205.984375 353.300781 210.035156 349.25 215.015625 349.25 L 304.683594 349.25 C 309.664062 349.25 313.71875 353.300781 313.71875 358.277344 C 313.71875 363.257812 309.664062 367.308594 304.679688 367.308594 Z M 304.679688 367.308594"/></g><path fill="#49AB30" d="M 208.417969 139.910156 C 207.691406 137.914062 205.484375 136.886719 203.488281 137.609375 C 201.492188 138.335938 200.460938 140.542969 201.191406 142.539062 L 204.089844 150.511719 C 204.660156 152.070312 206.132812 153.042969 207.707031 153.042969 C 208.140625 153.042969 208.585938 152.964844 209.019531 152.808594 C 211.015625 152.082031 212.046875 149.875 211.320312 147.878906 Z M 208.417969 139.910156"/><path fill="#49AB30" d="M 195.042969 158.101562 L 187.695312 153.859375 C 185.855469 152.792969 183.503906 153.425781 182.441406 155.265625 C 181.378906 157.101562 182.007812 159.453125 183.847656 160.519531 L 191.195312 164.761719 C 191.804688 165.113281 192.464844 165.277344 193.117188 165.277344 C 194.445312 165.277344 195.738281 164.589844 196.453125 163.355469 C 197.515625 161.515625 196.886719 159.164062 195.042969 158.101562 Z M 195.042969 158.101562"/><path fill="#49AB30" d="M 189.148438 176.386719 L 180.789062 177.859375 C 178.695312 178.230469 177.296875 180.222656 177.667969 182.316406 C 177.996094 184.179688 179.621094 185.492188 181.453125 185.492188 C 181.671875 185.492188 181.898438 185.472656 182.125 185.433594 L 190.484375 183.960938 C 192.574219 183.59375 193.972656 181.597656 193.601562 179.507812 C 193.234375 177.414062 191.242188 176.019531 189.148438 176.386719 Z M 189.148438 176.386719"/><path fill="#49AB30" d="M 253.660156 177.859375 L 245.300781 176.386719 C 243.210938 176.019531 241.214844 177.414062 240.847656 179.503906 C 240.476562 181.597656 241.875 183.589844 243.964844 183.960938 L 252.324219 185.433594 C 252.550781 185.472656 252.773438 185.492188 252.996094 185.492188 C 254.828125 185.492188 256.449219 184.179688 256.78125 182.316406 C 257.148438 180.222656 255.75 178.230469 253.660156 177.859375 Z M 253.660156 177.859375"/><path fill="#49AB30" d="M 230.964844 137.613281 C 228.964844 136.886719 226.761719 137.914062 226.035156 139.910156 L 223.132812 147.878906 C 222.40625 149.875 223.433594 152.082031 225.429688 152.808594 C 225.863281 152.96875 226.308594 153.042969 226.746094 153.042969 C 228.316406 153.042969 229.792969 152.074219 230.359375 150.511719 L 233.261719 142.539062 C 233.988281 140.546875 232.960938 138.339844 230.964844 137.613281 Z M 230.964844 137.613281"/><path fill="#49AB30" d="M 243.699219 164.761719 L 251.050781 160.519531 C 252.890625 159.453125 253.519531 157.101562 252.457031 155.265625 C 251.394531 153.425781 249.039062 152.796875 247.199219 153.859375 L 239.851562 158.101562 C 238.011719 159.164062 237.382812 161.515625 238.445312 163.355469 C 239.160156 164.589844 240.453125 165.277344 241.78125 165.277344 C 242.433594 165.277344 243.09375 165.109375 243.699219 164.761719 Z M 243.699219 164.761719"/></svg>