<svg xmlns="http://www.w3.org/2000/svg" width="375" viewBox="0 0 375 375" height="375" version="1.0"><path fill="#49AB30" d="M 236.554688 93.292969 C 235.832031 92.671875 235.015625 92.230469 234.101562 91.96875 C 233.1875 91.710938 232.261719 91.65625 231.324219 91.804688 L 192.597656 98.265625 C 192.222656 98.328125 191.855469 98.421875 191.496094 98.546875 C 191.136719 98.671875 190.789062 98.832031 190.457031 99.019531 C 190.125 99.207031 189.8125 99.421875 189.519531 99.664062 C 189.226562 99.90625 188.957031 100.171875 188.710938 100.464844 C 188.464844 100.753906 188.246094 101.066406 188.054688 101.394531 C 187.859375 101.722656 187.699219 102.066406 187.570312 102.425781 C 187.4375 102.785156 187.339844 103.152344 187.273438 103.527344 C 187.207031 103.902344 187.175781 104.28125 187.175781 104.664062 L 187.175781 117.585938 L 129.085938 117.585938 C 128.664062 117.585938 128.246094 117.625 127.828125 117.707031 C 127.414062 117.792969 127.007812 117.914062 126.617188 118.078125 C 126.226562 118.238281 125.855469 118.4375 125.5 118.671875 C 125.148438 118.910156 124.824219 119.175781 124.523438 119.476562 C 124.222656 119.777344 123.957031 120.105469 123.722656 120.457031 C 123.484375 120.808594 123.285156 121.179688 123.125 121.574219 C 122.960938 121.964844 122.839844 122.371094 122.757812 122.785156 C 122.675781 123.203125 122.632812 123.621094 122.632812 124.046875 L 122.632812 149.890625 C 122.632812 150.3125 122.675781 150.734375 122.757812 151.152344 C 122.839844 151.566406 122.960938 151.972656 123.125 152.363281 C 123.285156 152.753906 123.484375 153.128906 123.722656 153.480469 C 123.957031 153.832031 124.222656 154.160156 124.523438 154.457031 C 124.824219 154.757812 125.148438 155.027344 125.5 155.261719 C 125.855469 155.496094 126.226562 155.695312 126.617188 155.859375 C 127.007812 156.023438 127.414062 156.144531 127.828125 156.226562 C 128.246094 156.308594 128.664062 156.351562 129.085938 156.351562 L 129.667969 156.351562 L 141.996094 279.757812 C 142.035156 280.152344 142.113281 280.542969 142.222656 280.925781 C 142.335938 281.308594 142.480469 281.675781 142.660156 282.03125 C 142.839844 282.386719 143.050781 282.722656 143.292969 283.039062 C 143.535156 283.355469 143.804688 283.648438 144.101562 283.914062 C 144.398438 284.179688 144.714844 284.417969 145.054688 284.625 C 145.394531 284.832031 145.75 285.007812 146.121094 285.148438 C 146.492188 285.292969 146.875 285.398438 147.265625 285.46875 C 147.65625 285.539062 148.054688 285.574219 148.449219 285.574219 L 225.902344 285.574219 C 226.300781 285.574219 226.695312 285.539062 227.089844 285.46875 C 227.480469 285.398438 227.859375 285.292969 228.234375 285.148438 C 228.605469 285.007812 228.960938 284.832031 229.300781 284.625 C 229.640625 284.417969 229.957031 284.179688 230.253906 283.914062 C 230.550781 283.648438 230.820312 283.355469 231.058594 283.039062 C 231.300781 282.722656 231.511719 282.386719 231.691406 282.03125 C 231.875 281.675781 232.019531 281.308594 232.128906 280.925781 C 232.242188 280.542969 232.316406 280.152344 232.359375 279.757812 L 244.6875 156.351562 L 245.265625 156.351562 C 245.691406 156.351562 246.109375 156.308594 246.527344 156.226562 C 246.941406 156.144531 247.34375 156.023438 247.738281 155.859375 C 248.128906 155.695312 248.5 155.496094 248.851562 155.261719 C 249.203125 155.027344 249.53125 154.757812 249.832031 154.457031 C 250.128906 154.160156 250.398438 153.832031 250.632812 153.480469 C 250.867188 153.128906 251.066406 152.753906 251.230469 152.363281 C 251.390625 151.972656 251.515625 151.566406 251.597656 151.152344 C 251.679688 150.734375 251.722656 150.3125 251.722656 149.890625 L 251.722656 124.046875 C 251.722656 123.621094 251.679688 123.203125 251.597656 122.785156 C 251.515625 122.371094 251.390625 121.964844 251.230469 121.574219 C 251.066406 121.179688 250.867188 120.808594 250.632812 120.457031 C 250.398438 120.105469 250.128906 119.777344 249.832031 119.476562 C 249.53125 119.175781 249.203125 118.910156 248.851562 118.671875 C 248.5 118.4375 248.128906 118.238281 247.738281 118.078125 C 247.34375 117.914062 246.941406 117.792969 246.527344 117.707031 C 246.109375 117.625 245.691406 117.585938 245.265625 117.585938 L 238.8125 117.585938 L 238.8125 98.203125 C 238.8125 97.257812 238.613281 96.355469 238.21875 95.5 C 237.824219 94.640625 237.269531 93.90625 236.554688 93.292969 Z M 200.085938 110.15625 L 225.902344 105.824219 L 225.902344 117.585938 L 200.085938 117.585938 Z M 220.03125 272.652344 L 154.324219 272.652344 L 142.707031 156.351562 L 231.648438 156.351562 Z M 238.8125 143.429688 L 135.542969 143.429688 L 135.542969 130.507812 L 238.8125 130.507812 Z M 238.8125 143.429688"/><path fill="#49AB30" d="M 354.28125 146.984375 C 354.011719 146.453125 353.671875 145.972656 353.269531 145.535156 C 352.867188 145.097656 352.410156 144.726562 351.902344 144.414062 C 351.398438 144.105469 350.855469 143.871094 350.285156 143.710938 C 349.714844 143.546875 349.132812 143.46875 348.535156 143.46875 C 347.941406 143.46875 347.359375 143.546875 346.789062 143.710938 C 346.214844 143.871094 345.675781 144.105469 345.171875 144.414062 C 344.664062 144.726562 344.207031 145.097656 343.804688 145.535156 C 343.402344 145.972656 343.0625 146.453125 342.792969 146.984375 L 323.429688 185.75 C 323.304688 185.992188 323.199219 186.246094 323.109375 186.503906 C 323.015625 186.761719 322.941406 187.027344 322.882812 187.292969 C 322.828125 187.5625 322.785156 187.832031 322.761719 188.105469 C 322.738281 188.378906 322.734375 188.652344 322.746094 188.925781 C 322.757812 189.199219 322.785156 189.472656 322.832031 189.742188 C 322.878906 190.015625 322.941406 190.28125 323.019531 190.542969 C 323.101562 190.804688 323.195312 191.0625 323.308594 191.3125 C 323.421875 191.5625 323.550781 191.804688 323.691406 192.035156 C 323.835938 192.269531 323.992188 192.492188 324.164062 192.707031 C 324.335938 192.921875 324.519531 193.125 324.71875 193.3125 C 324.917969 193.503906 325.125 193.679688 325.34375 193.84375 C 325.566406 194.007812 325.792969 194.15625 326.03125 194.289062 C 326.273438 194.425781 326.519531 194.542969 326.773438 194.644531 C 327.027344 194.75 327.285156 194.835938 327.550781 194.90625 C 327.816406 194.976562 328.082031 195.027344 328.355469 195.0625 C 328.628906 195.097656 328.898438 195.117188 329.175781 195.117188 L 342.082031 195.117188 C 341.980469 197.285156 341.835938 199.449219 341.644531 201.613281 C 341.453125 203.773438 341.21875 205.929688 340.933594 208.082031 C 340.652344 210.234375 340.328125 212.378906 339.957031 214.519531 C 339.582031 216.65625 339.167969 218.785156 338.707031 220.90625 C 338.246094 223.027344 337.738281 225.136719 337.191406 227.234375 C 336.640625 229.335938 336.046875 231.421875 335.410156 233.496094 C 334.773438 235.570312 334.09375 237.632812 333.371094 239.675781 C 332.644531 241.722656 331.878906 243.753906 331.070312 245.765625 C 330.261719 247.78125 329.414062 249.777344 328.519531 251.753906 C 327.628906 253.730469 326.695312 255.691406 325.71875 257.628906 C 324.746094 259.566406 323.730469 261.484375 322.675781 263.378906 C 321.621094 265.277344 320.527344 267.148438 319.394531 269 C 318.261719 270.851562 317.089844 272.675781 315.878906 274.476562 C 314.667969 276.277344 313.421875 278.050781 312.136719 279.800781 C 310.851562 281.546875 309.53125 283.269531 308.175781 284.960938 C 306.820312 286.65625 305.425781 288.320312 304 289.953125 C 302.574219 291.585938 301.113281 293.191406 299.621094 294.765625 C 298.125 296.335938 296.601562 297.878906 295.042969 299.386719 C 293.484375 300.894531 291.894531 302.371094 290.273438 303.8125 C 288.65625 305.253906 287.003906 306.664062 285.324219 308.035156 C 283.648438 309.410156 281.9375 310.746094 280.203125 312.046875 C 278.46875 313.347656 276.707031 314.609375 274.917969 315.839844 C 273.128906 317.066406 271.316406 318.253906 269.480469 319.40625 C 267.640625 320.554688 265.777344 321.667969 263.894531 322.738281 C 262.007812 323.8125 260.101562 324.84375 258.175781 325.835938 C 256.246094 326.828125 254.300781 327.78125 252.332031 328.691406 C 250.363281 329.601562 248.375 330.46875 246.371094 331.296875 C 244.367188 332.125 242.347656 332.910156 240.308594 333.652344 C 238.273438 334.394531 236.21875 335.09375 234.152344 335.746094 C 232.085938 336.402344 230.007812 337.015625 227.914062 337.585938 C 225.824219 338.152344 223.71875 338.675781 221.605469 339.15625 C 219.492188 339.636719 217.367188 340.070312 215.234375 340.460938 C 213.101562 340.855469 210.960938 341.199219 208.816406 341.5 C 206.667969 341.800781 204.515625 342.054688 202.359375 342.265625 C 200.199219 342.476562 198.039062 342.640625 195.875 342.761719 C 193.710938 342.882812 191.542969 342.957031 189.375 342.984375 C 187.207031 343.011719 185.039062 342.996094 182.871094 342.933594 C 180.707031 342.871094 178.539062 342.761719 176.378906 342.609375 C 174.214844 342.453125 172.058594 342.253906 169.902344 342.011719 C 167.75 341.765625 165.601562 341.476562 163.457031 341.140625 C 161.316406 340.808594 159.183594 340.429688 157.054688 340.003906 C 154.929688 339.578125 152.8125 339.109375 150.707031 338.597656 C 148.601562 338.085938 146.507812 337.527344 144.421875 336.925781 C 142.339844 336.324219 140.269531 335.679688 138.214844 334.992188 C 136.15625 334.304688 134.117188 333.570312 132.089844 332.796875 C 130.066406 332.023438 128.058594 331.207031 126.066406 330.347656 C 124.074219 329.488281 122.101562 328.589844 120.148438 327.648438 C 118.195312 326.707031 116.261719 325.726562 114.351562 324.703125 C 112.4375 323.679688 110.550781 322.617188 108.679688 321.515625 C 106.8125 320.414062 104.96875 319.273438 103.148438 318.09375 C 101.332031 316.914062 99.535156 315.695312 97.765625 314.441406 C 96 313.1875 94.257812 311.894531 92.542969 310.566406 C 90.828125 309.238281 89.140625 307.875 87.484375 306.476562 C 85.828125 305.078125 84.199219 303.644531 82.601562 302.175781 C 81.003906 300.707031 79.4375 299.207031 77.90625 297.675781 C 76.371094 296.140625 74.867188 294.578125 73.398438 292.980469 C 71.929688 291.382812 70.496094 289.757812 69.097656 288.101562 C 67.695312 286.445312 66.332031 284.757812 65 283.042969 C 63.671875 281.332031 62.378906 279.589844 61.121094 277.820312 C 59.863281 276.050781 58.644531 274.257812 57.464844 272.4375 C 56.28125 270.621094 55.140625 268.777344 54.035156 266.90625 C 52.929688 265.039062 51.867188 263.148438 50.839844 261.238281 C 49.816406 259.324219 48.832031 257.390625 47.886719 255.4375 C 46.945312 253.484375 46.042969 251.511719 45.179688 249.519531 C 45.011719 249.128906 44.808594 248.757812 44.570312 248.410156 C 44.328125 248.058594 44.058594 247.734375 43.753906 247.441406 C 43.449219 247.144531 43.121094 246.878906 42.761719 246.648438 C 42.40625 246.417969 42.03125 246.222656 41.640625 246.0625 C 41.246094 245.90625 40.839844 245.789062 40.421875 245.710938 C 40.003906 245.632812 39.582031 245.597656 39.160156 245.605469 C 38.734375 245.609375 38.316406 245.65625 37.902344 245.746094 C 37.484375 245.832031 37.082031 245.960938 36.691406 246.128906 C 36.304688 246.296875 35.933594 246.5 35.582031 246.738281 C 35.234375 246.980469 34.910156 247.253906 34.613281 247.558594 C 34.320312 247.859375 34.054688 248.191406 33.824219 248.546875 C 33.59375 248.902344 33.398438 249.277344 33.242188 249.671875 C 33.082031 250.066406 32.964844 250.472656 32.890625 250.890625 C 32.8125 251.308594 32.777344 251.730469 32.78125 252.15625 C 32.785156 252.578125 32.832031 253 32.921875 253.414062 C 33.007812 253.832031 33.136719 254.234375 33.304688 254.625 C 34.238281 256.785156 35.21875 258.925781 36.242188 261.046875 C 37.265625 263.164062 38.332031 265.261719 39.445312 267.335938 C 40.554688 269.414062 41.710938 271.464844 42.90625 273.488281 C 44.105469 275.515625 45.34375 277.515625 46.628906 279.492188 C 47.910156 281.464844 49.230469 283.410156 50.59375 285.328125 C 51.957031 287.246094 53.363281 289.136719 54.804688 290.996094 C 56.246094 292.855469 57.730469 294.683594 59.25 296.480469 C 60.769531 298.277344 62.324219 300.042969 63.917969 301.773438 C 65.511719 303.503906 67.140625 305.203125 68.808594 306.863281 C 70.472656 308.527344 72.171875 310.15625 73.90625 311.746094 C 75.640625 313.335938 77.40625 314.890625 79.203125 316.410156 C 81.003906 317.925781 82.832031 319.40625 84.691406 320.84375 C 86.554688 322.285156 88.445312 323.683594 90.363281 325.046875 C 92.285156 326.40625 94.230469 327.726562 96.207031 329.003906 C 98.179688 330.28125 100.183594 331.519531 102.210938 332.714844 C 104.234375 333.90625 106.289062 335.058594 108.363281 336.167969 C 110.4375 337.273438 112.535156 338.339844 114.65625 339.359375 C 116.777344 340.378906 118.917969 341.351562 121.078125 342.28125 C 123.238281 343.210938 125.417969 344.09375 127.617188 344.933594 C 129.8125 345.769531 132.027344 346.5625 134.261719 347.304688 C 136.492188 348.050781 138.738281 348.75 141 349.398438 C 143.257812 350.046875 145.53125 350.652344 147.816406 351.207031 C 150.105469 351.757812 152.402344 352.265625 154.707031 352.722656 C 157.015625 353.179688 159.332031 353.589844 161.65625 353.949219 C 163.980469 354.308594 166.3125 354.621094 168.648438 354.882812 C 170.984375 355.144531 173.328125 355.359375 175.671875 355.523438 C 178.019531 355.6875 180.367188 355.800781 182.71875 355.863281 C 185.070312 355.929688 187.421875 355.945312 189.773438 355.910156 C 192.125 355.875 194.476562 355.792969 196.824219 355.660156 C 199.171875 355.527344 201.515625 355.34375 203.859375 355.109375 C 206.199219 354.878906 208.535156 354.597656 210.863281 354.269531 C 213.191406 353.9375 215.511719 353.558594 217.824219 353.132812 C 220.136719 352.703125 222.441406 352.226562 224.734375 351.703125 C 227.027344 351.175781 229.308594 350.605469 231.574219 349.984375 C 233.84375 349.363281 236.101562 348.695312 238.339844 347.980469 C 240.582031 347.261719 242.804688 346.5 245.015625 345.691406 C 247.222656 344.882812 249.414062 344.027344 251.585938 343.125 C 253.761719 342.222656 255.914062 341.277344 258.046875 340.285156 C 260.179688 339.292969 262.289062 338.257812 264.378906 337.175781 C 266.46875 336.09375 268.535156 334.96875 270.578125 333.800781 C 272.621094 332.632812 274.636719 331.421875 276.628906 330.171875 C 278.621094 328.917969 280.582031 327.625 282.519531 326.289062 C 284.457031 324.953125 286.367188 323.578125 288.246094 322.160156 C 290.125 320.746094 291.972656 319.289062 293.792969 317.796875 C 295.609375 316.300781 297.394531 314.769531 299.148438 313.203125 C 300.902344 311.632812 302.625 310.027344 304.308594 308.386719 C 305.996094 306.746094 307.648438 305.070312 309.261719 303.359375 C 310.878906 301.648438 312.457031 299.902344 314 298.128906 C 315.542969 296.351562 317.050781 294.539062 318.515625 292.699219 C 319.984375 290.859375 321.410156 288.988281 322.796875 287.089844 C 324.1875 285.1875 325.535156 283.257812 326.839844 281.300781 C 328.148438 279.34375 329.414062 277.359375 330.636719 275.347656 C 331.863281 273.339844 333.042969 271.304688 334.179688 269.242188 C 335.320312 267.183594 336.414062 265.097656 337.464844 262.992188 C 338.515625 260.886719 339.523438 258.757812 340.484375 256.609375 C 341.445312 254.460938 342.359375 252.292969 343.230469 250.105469 C 344.101562 247.917969 344.925781 245.714844 345.703125 243.492188 C 346.480469 241.269531 347.210938 239.03125 347.894531 236.777344 C 348.578125 234.527344 349.214844 232.261719 349.804688 229.980469 C 350.394531 227.699219 350.933594 225.410156 351.425781 223.109375 C 351.917969 220.804688 352.363281 218.492188 352.757812 216.171875 C 353.152344 213.851562 353.5 211.523438 353.796875 209.1875 C 354.09375 206.851562 354.34375 204.511719 354.542969 202.164062 C 354.742188 199.820312 354.890625 197.46875 354.992188 195.117188 L 367.898438 195.117188 C 368.175781 195.117188 368.445312 195.097656 368.71875 195.0625 C 368.988281 195.027344 369.257812 194.976562 369.523438 194.90625 C 369.789062 194.835938 370.046875 194.75 370.300781 194.644531 C 370.554688 194.542969 370.800781 194.425781 371.039062 194.289062 C 371.28125 194.15625 371.507812 194.007812 371.730469 193.84375 C 371.949219 193.679688 372.15625 193.503906 372.355469 193.3125 C 372.550781 193.125 372.738281 192.921875 372.910156 192.707031 C 373.082031 192.492188 373.238281 192.269531 373.382812 192.035156 C 373.523438 191.804688 373.652344 191.5625 373.765625 191.3125 C 373.878906 191.0625 373.972656 190.804688 374.054688 190.542969 C 374.132812 190.28125 374.195312 190.015625 374.242188 189.742188 C 374.289062 189.472656 374.316406 189.199219 374.328125 188.925781 C 374.339844 188.652344 374.335938 188.378906 374.3125 188.105469 C 374.289062 187.832031 374.246094 187.5625 374.191406 187.292969 C 374.132812 187.027344 374.058594 186.761719 373.964844 186.503906 C 373.875 186.246094 373.769531 185.992188 373.644531 185.75 Z M 339.628906 182.195312 L 348.535156 164.363281 L 357.445312 182.195312 Z M 339.628906 182.195312"/><path fill="#49AB30" d="M 50.667969 185.230469 C 50.074219 184.285156 49.292969 183.542969 48.316406 183.003906 C 47.339844 182.460938 46.296875 182.191406 45.179688 182.195312 L 32.273438 182.195312 C 32.359375 180.023438 32.488281 177.851562 32.667969 175.683594 C 32.84375 173.515625 33.066406 171.351562 33.335938 169.195312 C 33.601562 167.035156 33.914062 164.882812 34.273438 162.738281 C 34.632812 160.59375 35.035156 158.457031 35.484375 156.328125 C 35.933594 154.199219 36.425781 152.082031 36.964844 149.972656 C 37.5 147.867188 38.082031 145.769531 38.707031 143.6875 C 39.332031 141.605469 40.003906 139.535156 40.714844 137.480469 C 41.425781 135.425781 42.183594 133.386719 42.980469 131.363281 C 43.777344 129.339844 44.617188 127.335938 45.5 125.347656 C 46.382812 123.359375 47.308594 121.390625 48.273438 119.441406 C 49.238281 117.492188 50.246094 115.566406 51.289062 113.660156 C 52.335938 111.753906 53.421875 109.867188 54.546875 108.007812 C 55.671875 106.148438 56.835938 104.3125 58.039062 102.5 C 59.242188 100.6875 60.484375 98.902344 61.761719 97.144531 C 63.039062 95.382812 64.351562 93.652344 65.703125 91.949219 C 67.054688 90.246094 68.4375 88.570312 69.859375 86.921875 C 71.28125 85.277344 72.734375 83.664062 74.226562 82.078125 C 75.714844 80.496094 77.234375 78.941406 78.789062 77.421875 C 80.34375 75.902344 81.929688 74.414062 83.546875 72.960938 C 85.160156 71.507812 86.808594 70.089844 88.484375 68.703125 C 90.160156 67.320312 91.867188 65.972656 93.597656 64.660156 C 95.332031 63.347656 97.089844 62.070312 98.878906 60.832031 C 100.664062 59.59375 102.476562 58.394531 104.3125 57.234375 C 106.148438 56.070312 108.011719 54.949219 109.894531 53.867188 C 111.777344 52.78125 113.683594 51.738281 115.613281 50.734375 C 117.539062 49.730469 119.488281 48.769531 121.457031 47.847656 C 123.425781 46.929688 125.414062 46.046875 127.417969 45.210938 C 129.421875 44.375 131.445312 43.578125 133.484375 42.828125 C 135.523438 42.074219 137.578125 41.367188 139.644531 40.699219 C 141.714844 40.035156 143.796875 39.410156 145.890625 38.832031 C 147.984375 38.253906 150.09375 37.722656 152.210938 37.234375 C 154.328125 36.742188 156.453125 36.300781 158.589844 35.898438 C 160.726562 35.5 162.867188 35.144531 165.019531 34.835938 C 167.167969 34.527344 169.328125 34.261719 171.488281 34.042969 C 173.648438 33.824219 175.816406 33.652344 177.984375 33.523438 C 180.152344 33.398438 182.324219 33.316406 184.496094 33.28125 C 186.671875 33.242188 188.84375 33.253906 191.015625 33.308594 C 193.1875 33.363281 195.355469 33.464844 197.523438 33.613281 C 199.691406 33.761719 201.855469 33.953125 204.015625 34.191406 C 206.175781 34.429688 208.332031 34.710938 210.480469 35.042969 C 212.625 35.371094 214.765625 35.742188 216.898438 36.164062 C 219.03125 36.582031 221.152344 37.046875 223.265625 37.554688 C 225.378906 38.0625 227.480469 38.617188 229.570312 39.210938 C 231.660156 39.808594 233.734375 40.449219 235.796875 41.132812 C 237.859375 41.820312 239.90625 42.546875 241.941406 43.316406 C 243.972656 44.089844 245.988281 44.902344 247.984375 45.757812 C 249.980469 46.613281 251.960938 47.507812 253.921875 48.449219 C 255.882812 49.386719 257.820312 50.367188 259.738281 51.386719 C 261.660156 52.410156 263.554688 53.46875 265.429688 54.570312 C 267.304688 55.667969 269.152344 56.808594 270.980469 57.988281 C 272.808594 59.167969 274.609375 60.382812 276.382812 61.636719 C 278.160156 62.890625 279.90625 64.183594 281.628906 65.511719 C 283.347656 66.839844 285.039062 68.203125 286.703125 69.601562 C 288.367188 71 290 72.433594 291.605469 73.902344 C 293.207031 75.371094 294.78125 76.871094 296.320312 78.40625 C 297.859375 79.941406 299.367188 81.507812 300.84375 83.105469 C 302.316406 84.703125 303.757812 86.328125 305.164062 87.988281 C 306.570312 89.648438 307.941406 91.335938 309.273438 93.050781 C 310.609375 94.765625 311.910156 96.511719 313.171875 98.28125 C 314.433594 100.050781 315.65625 101.847656 316.84375 103.671875 C 318.027344 105.492188 319.175781 107.339844 320.285156 109.210938 C 321.394531 111.082031 322.460938 112.976562 323.492188 114.890625 C 324.519531 116.804688 325.507812 118.742188 326.457031 120.699219 C 327.402344 122.65625 328.308594 124.632812 329.175781 126.628906 C 329.34375 127.019531 329.550781 127.390625 329.792969 127.742188 C 330.035156 128.089844 330.308594 128.414062 330.613281 128.707031 C 330.917969 129.003906 331.25 129.265625 331.609375 129.496094 C 331.964844 129.726562 332.34375 129.921875 332.738281 130.078125 C 333.132812 130.234375 333.542969 130.347656 333.960938 130.425781 C 334.378906 130.5 334.800781 130.535156 335.226562 130.527344 C 335.648438 130.519531 336.070312 130.46875 336.484375 130.378906 C 336.902344 130.289062 337.304688 130.160156 337.695312 129.988281 C 338.082031 129.820312 338.453125 129.613281 338.800781 129.371094 C 339.152344 129.128906 339.472656 128.855469 339.769531 128.546875 C 340.066406 128.242188 340.328125 127.910156 340.558594 127.550781 C 340.789062 127.195312 340.980469 126.816406 341.136719 126.421875 C 341.292969 126.027344 341.40625 125.617188 341.484375 125.199219 C 341.558594 124.78125 341.59375 124.359375 341.585938 123.933594 C 341.578125 123.507812 341.53125 123.085938 341.4375 122.671875 C 341.347656 122.253906 341.21875 121.851562 341.050781 121.460938 C 340.113281 119.296875 339.128906 117.152344 338.101562 115.027344 C 337.074219 112.902344 336.003906 110.804688 334.886719 108.722656 C 333.773438 106.644531 332.613281 104.589844 331.410156 102.5625 C 330.207031 100.53125 328.964844 98.527344 327.675781 96.550781 C 326.390625 94.574219 325.0625 92.625 323.691406 90.703125 C 322.324219 88.78125 320.914062 86.890625 319.46875 85.027344 C 318.019531 83.167969 316.53125 81.335938 315.007812 79.539062 C 313.480469 77.738281 311.917969 75.972656 310.316406 74.238281 C 308.71875 72.507812 307.082031 70.808594 305.410156 69.144531 C 303.738281 67.480469 302.035156 65.851562 300.292969 64.257812 C 298.554688 62.667969 296.78125 61.113281 294.976562 59.59375 C 293.171875 58.078125 291.335938 56.597656 289.46875 55.160156 C 287.597656 53.71875 285.703125 52.320312 283.777344 50.960938 C 281.847656 49.597656 279.894531 48.28125 277.914062 47.003906 C 275.929688 45.726562 273.921875 44.492188 271.886719 43.296875 C 269.855469 42.105469 267.796875 40.957031 265.714844 39.851562 C 263.632812 38.742188 261.527344 37.683594 259.398438 36.664062 C 257.273438 35.648438 255.125 34.675781 252.957031 33.75 C 250.789062 32.824219 248.601562 31.941406 246.398438 31.109375 C 244.191406 30.273438 241.96875 29.488281 239.730469 28.746094 C 237.492188 28.007812 235.242188 27.3125 232.972656 26.667969 C 230.707031 26.023438 228.425781 25.425781 226.132812 24.875 C 223.839844 24.324219 221.539062 23.824219 219.222656 23.371094 C 216.910156 22.921875 214.589844 22.519531 212.257812 22.164062 C 209.925781 21.808594 207.589844 21.503906 205.246094 21.25 C 202.902344 20.992188 200.554688 20.785156 198.203125 20.628906 C 195.851562 20.472656 193.496094 20.367188 191.140625 20.308594 C 188.785156 20.253906 186.425781 20.246094 184.070312 20.285156 C 181.710938 20.328125 179.359375 20.421875 177.003906 20.5625 C 174.652344 20.703125 172.300781 20.894531 169.957031 21.136719 C 167.613281 21.375 165.273438 21.667969 162.941406 22.003906 C 160.609375 22.34375 158.28125 22.734375 155.964844 23.171875 C 153.648438 23.609375 151.34375 24.09375 149.046875 24.628906 C 146.75 25.164062 144.46875 25.746094 142.195312 26.378906 C 139.925781 27.007812 137.667969 27.6875 135.425781 28.414062 C 133.179688 29.140625 130.953125 29.914062 128.746094 30.730469 C 126.535156 31.550781 124.34375 32.417969 122.167969 33.332031 C 119.996094 34.242188 117.839844 35.203125 115.707031 36.207031 C 113.574219 37.210938 111.460938 38.257812 109.371094 39.351562 C 107.28125 40.441406 105.21875 41.578125 103.175781 42.757812 C 101.132812 43.9375 99.117188 45.160156 97.128906 46.425781 C 95.136719 47.6875 93.175781 48.996094 91.238281 50.34375 C 89.304688 51.691406 87.398438 53.078125 85.523438 54.507812 C 83.644531 55.933594 81.800781 57.402344 79.984375 58.90625 C 78.167969 60.414062 76.386719 61.957031 74.636719 63.535156 C 72.886719 65.117188 71.171875 66.734375 69.488281 68.386719 C 67.808594 70.042969 66.160156 71.730469 64.550781 73.453125 C 62.9375 75.175781 61.363281 76.933594 59.828125 78.722656 C 58.289062 80.511719 56.792969 82.332031 55.332031 84.183594 C 53.871094 86.035156 52.449219 87.917969 51.070312 89.832031 C 49.6875 91.742188 48.347656 93.683594 47.050781 95.652344 C 45.75 97.621094 44.492188 99.617188 43.277344 101.640625 C 42.0625 103.660156 40.890625 105.707031 39.761719 107.78125 C 38.628906 109.851562 37.546875 111.945312 36.503906 114.0625 C 35.464844 116.179688 34.46875 118.316406 33.515625 120.476562 C 32.566406 122.636719 31.660156 124.816406 30.800781 127.011719 C 29.941406 129.210938 29.128906 131.425781 28.363281 133.65625 C 27.597656 135.886719 26.878906 138.132812 26.207031 140.394531 C 25.535156 142.660156 24.910156 144.933594 24.335938 147.222656 C 23.761719 149.511719 23.234375 151.808594 22.753906 154.121094 C 22.273438 156.429688 21.84375 158.75 21.464844 161.078125 C 21.082031 163.40625 20.75 165.742188 20.46875 168.085938 C 20.183594 170.429688 19.949219 172.777344 19.765625 175.128906 C 19.582031 177.480469 19.449219 179.835938 19.363281 182.195312 L 6.453125 182.195312 C 6.179688 182.195312 5.90625 182.214844 5.636719 182.25 C 5.363281 182.285156 5.097656 182.339844 4.832031 182.410156 C 4.566406 182.476562 4.308594 182.5625 4.054688 182.667969 C 3.800781 182.769531 3.550781 182.890625 3.3125 183.023438 C 3.074219 183.15625 2.84375 183.304688 2.625 183.46875 C 2.40625 183.632812 2.195312 183.808594 2 184 C 1.800781 184.191406 1.617188 184.390625 1.445312 184.605469 C 1.273438 184.820312 1.117188 185.042969 0.972656 185.277344 C 0.828125 185.511719 0.703125 185.753906 0.589844 186.003906 C 0.476562 186.253906 0.378906 186.507812 0.300781 186.769531 C 0.21875 187.03125 0.15625 187.300781 0.113281 187.570312 C 0.0664062 187.839844 0.0351562 188.113281 0.0234375 188.386719 C 0.015625 188.660156 0.0195312 188.933594 0.0429688 189.207031 C 0.0664062 189.480469 0.105469 189.75 0.164062 190.019531 C 0.222656 190.285156 0.296875 190.550781 0.386719 190.808594 C 0.480469 191.066406 0.585938 191.320312 0.710938 191.5625 L 20.074219 230.332031 C 20.34375 230.859375 20.679688 231.34375 21.085938 231.777344 C 21.488281 232.214844 21.945312 232.585938 22.453125 232.898438 C 22.957031 233.207031 23.496094 233.441406 24.070312 233.605469 C 24.640625 233.765625 25.222656 233.84375 25.816406 233.84375 C 26.410156 233.84375 26.996094 233.765625 27.566406 233.605469 C 28.136719 233.441406 28.675781 233.207031 29.183594 232.898438 C 29.691406 232.585938 30.144531 232.214844 30.550781 231.777344 C 30.953125 231.34375 31.292969 230.859375 31.5625 230.332031 L 50.925781 191.5625 C 51.175781 191.070312 51.363281 190.550781 51.480469 190.007812 C 51.597656 189.46875 51.648438 188.917969 51.625 188.363281 C 51.601562 187.808594 51.507812 187.265625 51.347656 186.738281 C 51.183594 186.207031 50.957031 185.703125 50.667969 185.230469 Z M 25.816406 212.949219 L 16.910156 195.117188 L 34.726562 195.117188 Z M 25.816406 212.949219"/></svg>