<svg xmlns="http://www.w3.org/2000/svg" width="375" viewBox="0 0 375 375" height="375" version="1.0"><defs><clipPath id="a"><path d="M 72.765625 169.082031 L 302.234375 169.082031 L 302.234375 375 L 72.765625 375 Z M 72.765625 169.082031"/></clipPath></defs><g clip-path="url(#a)"><path fill="#49AB30" d="M 260.789062 357.4375 C 260.554688 360.574219 257.910156 363.050781 254.75 363.050781 L 120.25 363.050781 C 117.089844 363.050781 114.445312 360.574219 114.210938 357.4375 L 103.40625 206.046875 L 271.59375 206.046875 Z M 96.921875 181.890625 L 278.078125 181.890625 C 284.730469 181.890625 290.15625 187.292969 290.15625 193.96875 L 84.84375 193.96875 C 84.84375 187.292969 90.269531 181.890625 96.921875 181.890625 Z M 290.15625 206.046875 C 296.808594 206.046875 302.234375 200.621094 302.234375 193.96875 C 302.234375 180.640625 291.40625 169.8125 278.078125 169.8125 L 96.921875 169.8125 C 83.59375 169.8125 72.765625 180.640625 72.765625 193.96875 C 72.765625 200.621094 78.191406 206.046875 84.84375 206.046875 L 91.304688 206.046875 L 102.179688 358.285156 C 102.839844 367.71875 110.789062 375.128906 120.25 375.128906 L 254.75 375.128906 C 264.210938 375.128906 272.160156 367.71875 272.820312 358.285156 L 283.695312 206.046875 L 290.15625 206.046875"/></g><path fill="#49AB30" d="M 133.152344 236.238281 C 133.152344 232.890625 135.863281 230.199219 139.191406 230.199219 C 142.515625 230.199219 145.230469 232.890625 145.230469 236.238281 L 145.230469 332.855469 C 145.230469 336.183594 142.515625 338.894531 139.191406 338.894531 C 135.863281 338.894531 133.152344 336.183594 133.152344 332.855469 Z M 139.191406 350.972656 C 149.191406 350.972656 157.308594 342.835938 157.308594 332.855469 L 157.308594 236.238281 C 157.308594 226.238281 149.191406 218.121094 139.191406 218.121094 C 129.1875 218.121094 121.074219 226.238281 121.074219 236.238281 L 121.074219 332.855469 C 121.074219 342.835938 129.1875 350.972656 139.191406 350.972656"/><path fill="#49AB30" d="M 181.460938 236.238281 C 181.460938 232.890625 184.175781 230.199219 187.5 230.199219 C 190.824219 230.199219 193.539062 232.890625 193.539062 236.238281 L 193.539062 332.855469 C 193.539062 336.183594 190.824219 338.894531 187.5 338.894531 C 184.175781 338.894531 181.460938 336.183594 181.460938 332.855469 Z M 187.5 350.972656 C 197.5 350.972656 205.617188 342.835938 205.617188 332.855469 L 205.617188 236.238281 C 205.617188 226.238281 197.5 218.121094 187.5 218.121094 C 177.5 218.121094 169.382812 226.238281 169.382812 236.238281 L 169.382812 332.855469 C 169.382812 342.835938 177.5 350.972656 187.5 350.972656"/><path fill="#49AB30" d="M 229.769531 236.238281 C 229.769531 232.890625 232.484375 230.199219 235.808594 230.199219 C 239.136719 230.199219 241.847656 232.890625 241.847656 236.238281 L 241.847656 332.855469 C 241.847656 336.183594 239.136719 338.894531 235.808594 338.894531 C 232.484375 338.894531 229.769531 336.183594 229.769531 332.855469 Z M 235.808594 350.972656 C 245.8125 350.972656 253.925781 342.835938 253.925781 332.855469 L 253.925781 236.238281 C 253.925781 226.238281 245.8125 218.121094 235.808594 218.121094 C 225.808594 218.121094 217.691406 226.238281 217.691406 236.238281 L 217.691406 332.855469 C 217.691406 342.835938 225.808594 350.972656 235.808594 350.972656"/><path fill="#49AB30" d="M 163.34375 36.964844 L 211.65625 36.964844 L 211.65625 24.886719 L 163.34375 24.886719 L 163.34375 36.964844"/><path fill="#49AB30" d="M 175.421875 61.117188 L 199.578125 61.117188 L 199.578125 73.195312 L 175.421875 73.195312 Z M 163.34375 85.273438 L 211.65625 85.273438 L 211.65625 49.039062 L 163.34375 49.039062 L 163.34375 85.273438"/><path fill="#49AB30" d="M 362.621094 115.464844 C 362.621094 118.792969 359.90625 121.503906 356.582031 121.503906 L 201.890625 121.503906 L 190.824219 143.582031 C 189.574219 146.128906 185.425781 146.128906 184.175781 143.582031 L 173.109375 121.503906 L 18.417969 121.503906 C 15.09375 121.503906 12.378906 118.792969 12.378906 115.464844 L 12.378906 55.078125 C 12.378906 51.730469 15.09375 49.039062 18.417969 49.039062 L 25.28125 49.039062 C 24.761719 51.257812 24.457031 53.570312 24.457031 55.929688 L 24.457031 91.3125 C 24.457031 101.289062 32.570312 109.425781 42.574219 109.425781 L 78.804688 109.425781 C 88.804688 109.425781 96.921875 101.289062 96.921875 91.3125 L 96.921875 55.929688 C 96.921875 53.570312 96.613281 51.257812 96.09375 49.039062 L 139.191406 49.039062 L 139.191406 109.425781 L 235.808594 109.425781 L 235.808594 49.039062 L 290.628906 49.039062 C 293.339844 67.414062 307.683594 78.503906 314.3125 82.699219 L 314.3125 109.425781 L 326.390625 109.425781 L 326.390625 82.699219 C 333.015625 78.503906 347.359375 67.414062 350.070312 49.039062 L 356.582031 49.039062 C 359.90625 49.039062 362.621094 51.730469 362.621094 55.078125 Z M 44.601562 40.855469 L 50.425781 36.964844 L 70.949219 36.964844 L 76.777344 40.855469 C 79.820312 42.859375 81.988281 45.761719 83.355469 49.039062 L 38.042969 49.039062 C 39.386719 45.761719 41.558594 42.859375 44.601562 40.855469 Z M 66.726562 12.808594 L 66.726562 24.886719 L 54.648438 24.886719 L 54.648438 12.808594 Z M 36.535156 85.273438 L 84.84375 85.273438 L 84.84375 91.3125 C 84.84375 94.636719 82.128906 97.347656 78.804688 97.347656 L 42.574219 97.347656 C 39.246094 97.347656 36.535156 94.636719 36.535156 91.3125 Z M 84.84375 73.195312 L 36.535156 73.195312 L 36.535156 61.117188 L 84.84375 61.117188 Z M 151.269531 12.808594 L 223.730469 12.808594 L 223.730469 97.347656 L 151.269531 97.347656 Z M 320.351562 13.777344 C 325.988281 17.480469 338.464844 27.410156 338.464844 43 C 338.464844 54.136719 332.097656 62.34375 326.390625 67.488281 L 326.390625 43 L 314.3125 43 L 314.3125 67.488281 C 308.601562 62.34375 302.234375 54.136719 302.234375 43 C 302.234375 27.410156 314.710938 17.480469 320.351562 13.777344 Z M 356.582031 36.964844 L 350.070312 36.964844 C 346.628906 13.46875 324.078125 1.886719 323.0625 1.367188 L 320.351562 0 L 317.636719 1.367188 C 316.625 1.886719 294.074219 13.46875 290.628906 36.964844 L 235.808594 36.964844 L 235.808594 0.730469 L 139.191406 0.730469 L 139.191406 36.964844 L 90.152344 36.964844 C 88.261719 34.628906 86.046875 32.503906 83.476562 30.804688 L 78.804688 27.691406 L 78.804688 12.808594 C 78.804688 6.132812 73.378906 0.730469 66.726562 0.730469 L 54.648438 0.730469 C 47.996094 0.730469 42.574219 6.132812 42.574219 12.808594 L 42.574219 27.691406 L 37.902344 30.804688 C 35.332031 32.503906 33.113281 34.628906 31.226562 36.964844 L 18.417969 36.964844 C 8.417969 36.964844 0.300781 45.078125 0.300781 55.078125 L 0.300781 115.464844 C 0.300781 125.445312 8.417969 133.582031 18.417969 133.582031 L 165.65625 133.582031 L 173.347656 148.984375 C 176.058594 154.386719 181.484375 157.734375 187.5 157.734375 C 193.515625 157.734375 198.941406 154.386719 201.652344 148.984375 L 209.34375 133.582031 L 356.582031 133.582031 C 366.582031 133.582031 374.699219 125.445312 374.699219 115.464844 L 374.699219 55.078125 C 374.699219 45.078125 366.582031 36.964844 356.582031 36.964844"/><path fill="#49AB30" d="M 308.578125 222.25 L 320.042969 226.070312 L 328.867188 199.582031 C 339.222656 215.503906 344.503906 231.898438 344.503906 248.316406 C 344.503906 282.707031 323.558594 315.023438 287.042969 336.960938 L 293.269531 347.316406 C 333.511719 323.136719 356.582031 287.046875 356.582031 248.316406 C 356.582031 231.542969 351.839844 214.9375 342.570312 198.828125 L 367.007812 205.808594 L 370.3125 194.203125 L 322.496094 180.523438 L 308.578125 222.25"/><path fill="#49AB30" d="M 46.132812 297.027344 C 35.777344 281.105469 30.496094 264.734375 30.496094 248.316406 C 30.496094 208.664062 58 172.335938 104.089844 151.132812 L 99.042969 140.164062 C 48.5625 163.398438 18.417969 203.828125 18.417969 248.316406 C 18.417969 265.085938 23.160156 281.695312 32.429688 297.78125 L 7.992188 290.820312 L 4.6875 302.425781 L 52.503906 316.085938 L 66.421875 274.382812 L 54.957031 270.558594 L 46.132812 297.027344"/></svg>